<?xml version="1.0" encoding="UTF-8" standalone="no"?>
<!-- Created with Inkscape (http://www.inkscape.org/) -->

<svg
   width="210mm"
   height="297mm"
   viewBox="0 0 210 297"
   version="1.1"
   id="svg1"
   xml:space="preserve"
   xmlns="http://www.w3.org/2000/svg"
   xmlns:svg="http://www.w3.org/2000/svg"><defs
     id="defs1" /><g
     id="layer1"><path
       style="fill:#000000"
       d="m 92.885019,200.86933 c -1.31657,-0.0992 -1.80775,-0.13883 -2.48105,-0.19999 -2.13457,-0.1939 -4.35642,-0.46185 -6.552876,-0.79026 -1.3028,-0.19479 -3.14826,-0.50833 -3.18158,-0.54054 -0.0192,-0.0186 -0.0353,-2.94761 -0.047,-8.60097 -0.0196,-9.40787 -0.005,-8.65784 -0.18778,-9.38063 -0.49423,-1.94971 -1.96705,-3.55438 -3.8662,-4.21233 -0.5964,-0.20662 -0.54695,-0.20089 -4.29075,-0.49697 -3.68395,-0.29135 -4.39971,-0.35973 -5.50209,-0.5256 -4.97016,-0.74784 -9.67787,-2.5203 -13.95224,-5.25302 -0.25686,-0.16422 -0.53269,-0.33177 -0.61296,-0.37232 -0.21305,-0.10765 -0.60612,-0.24096 -0.89026,-0.30192 -0.33026,-0.0709 -1.03132,-0.0725 -1.34071,-0.003 -0.11932,0.0268 -0.22313,0.0425 -0.23069,0.0349 -0.0329,-0.0329 -0.20584,-1.7834 -0.28113,-2.84584 -0.0881,-1.24384 -0.11041,-2.07926 -0.0945,-3.54632 0.0183,-1.68895 0.0626,-2.35488 0.24287,-3.64871 0.6079,-4.36349 2.41586,-7.08378 5.17039,-7.77944 0.64747,-0.16353 0.9682,-0.1891 2.37155,-0.1891 0.7608,0 1.48653,0.0155 1.81065,0.0386 l 0.54094,0.0386 0.21266,-0.1205 c 1.81939,-1.03099 2.84064,-2.47321 3.06951,-4.33484 0.0331,-0.26886 0.0438,-1.14862 0.0166,-1.36705 -0.0703,-0.56613 -0.0831,-0.63257 -0.12197,-0.63257 -0.0223,0 -0.21471,-0.0574 -0.42752,-0.12765 -0.96844,-0.31952 -2.33253,-1.07218 -3.29093,-1.81585 -0.67188,-0.52133 -1.38223,-1.29776 -1.72629,-1.88688 -0.66923,-1.14589 -0.74299,-2.39135 -0.20307,-3.42914 0.31822,-0.61168 0.89482,-1.13303 1.54964,-1.40118 0.35096,-0.14371 0.60618,-0.18966 1.1629,-0.20937 0.60466,-0.0214 0.58501,-0.009 0.65831,-0.41752 0.14716,-0.82038 0.50882,-2.06465 0.85525,-2.94251 0.48649,-1.23277 0.96857,-1.98816 1.78826,-2.80212 0.42147,-0.41853 0.76674,-0.67459 1.18331,-0.87759 0.35896,-0.17493 0.58822,-0.23059 0.95201,-0.23115 0.26199,-4.1e-4 0.29404,0.006 0.48161,0.10011 0.26523,0.13272 0.55297,0.37881 0.8672,0.74171 0.22649,0.26155 0.26744,0.29611 0.35089,0.29611 0.0739,0 0.12287,-0.0292 0.2246,-0.13386 0.0716,-0.0736 0.23193,-0.21925 0.35635,-0.3236 l 0.22621,-0.18973 v -9.2442 c 0,-10.26308 -0.0178,-9.38319 0.19752,-9.79285 0.12124,-0.2307 0.37745,-0.52075 0.55755,-0.63117 0.0655,-0.0401 0.1196,-0.0927 0.1203,-0.11675 0.002,-0.0506 2.16159,-1.21713 2.43756,-1.31635 0.12934,-0.0465 0.2667,-0.0665 0.52539,-0.0765 l 0.35027,-0.0135 31.246587,5.63774 c 17.18562,3.10077 31.3057,5.65216 31.37794,5.66976 0.61086,0.14883 1.1338,0.64517 1.36226,1.293 l 0.0822,0.23323 0.009,1.34998 c 0.007,1.01731 0.0178,1.3499 0.044,1.34963 0.0642,-6.4e-4 0.87812,-0.1978 1.26068,-0.30537 2.03978,-0.57355 3.86327,-1.50567 5.29765,-2.70801 0.48651,-0.4078 1.15202,-1.09535 1.46952,-1.51819 0.14179,-0.18883 0.28204,-0.3563 0.31167,-0.37215 0.13548,-0.0725 0.22377,-0.0366 0.4133,0.16819 0.49545,0.53528 1.00812,0.97636 1.60006,1.37662 1.74647,1.18097 4.3306,2.18577 7.28553,2.83289 0.78941,0.17287 0.78457,0.14895 0.25057,1.23773 -1.55281,3.16608 -3.42533,5.73798 -5.7264,7.86521 -1.05337,0.97379 -2.3749,1.95702 -3.57563,2.66032 -1.21284,0.71039 -3.05547,1.49355 -3.41793,1.4527 -0.15178,-0.0171 -1.24777,-0.55381 -1.83605,-0.89911 -1.11869,-0.65663 -2.13037,-1.42289 -2.99914,-2.27159 l -0.37216,-0.36355 v 4.17896 c 0,2.76528 0.01,4.17897 0.0292,4.17897 0.016,0 0.14411,-0.0195 0.28459,-0.0434 1.12089,-0.19023 2.76813,-0.2138 3.9332,-0.0563 5.13997,0.695 9.44216,4.28304 11.0805,9.24116 0.32739,0.99078 0.54343,2.07153 0.63784,3.19071 0.038,0.45065 0.0381,1.73698 1.4e-4,2.18916 -0.17945,2.13814 -0.78794,4.03075 -1.9191,5.96911 -0.5986,1.02576 -1.59962,2.23175 -2.57224,3.09895 -3.1421,2.80154 -7.23056,3.96836 -11.38269,3.24857 -2.30754,-0.40003 -4.55015,-1.46547 -6.40056,-3.04085 -0.45425,-0.38673 -1.20114,-1.144 -1.57884,-1.60077 l -0.31348,-0.37912 -8.38477,-1.51291 c -4.61163,-0.8321 -8.4209,-1.51975 -8.46504,-1.52811 l -0.0803,-0.0152 -1.8e-4,2.43362 c -1.8e-4,2.63773 -0.006,2.74816 -0.16056,3.22052 -0.27046,0.82488 -0.9221,1.55527 -1.75749,1.96985 -0.41426,0.20559 -7.80219,3.30033 -8.0505,3.37229 -0.36529,0.10585 -0.69405,0.16268 -1.035441,0.17898 -0.30453,0.0145 -0.33498,0.009 -4.77206,-0.81677 -2.45606,-0.45727 -4.46866,-0.82832 -4.47242,-0.82455 -0.004,0.004 0.14057,0.22994 0.32076,0.50261 0.54594,0.8261 0.71,1.1584 0.89491,1.81261 0.23053,0.81562 0.30434,1.4032 0.30544,2.43145 9e-4,0.83657 -0.0214,1.13277 -0.14659,1.95214 l -0.0731,0.4781 0.0952,0.12027 c 0.91466,1.15575 2.30019,2.64616 2.65646,2.85753 0.22524,0.13363 0.63055,0.2676 0.93925,0.31045 0.50165,0.0696 1.30979,0.0292 2.0338,-0.10173 2.938831,-0.53156 7.838621,-2.72114 13.470621,-6.01964 2.40033,-1.4058 2.97998,-1.83112 4.46785,-3.27834 0.72546,-0.70564 1.00625,-0.93729 1.42635,-1.17669 0.50934,-0.29026 1.32999,-0.53956 2.18097,-0.66254 0.52509,-0.0759 1.4922,-0.0909 1.95118,-0.0304 0.60626,0.08 1.16525,0.21929 1.68936,0.42099 1.73673,0.66838 3.24354,2.16886 3.24354,3.22993 0,0.15025 -0.017,0.22955 -0.0733,0.34254 -0.16363,0.32835 -0.59944,0.69874 -1.02959,0.87503 l -0.2031,0.0832 -0.0339,0.18377 c -0.13983,0.75893 -0.70871,1.59754 -1.53527,2.26322 -1.17919,0.94968 -2.67086,1.56568 -4.40751,1.82013 -0.50066,0.0733 -1.73449,0.0739 -2.20375,9e-4 -0.84877,-0.13196 -1.66032,-0.43439 -2.10887,-0.7859 -0.0602,-0.0472 -0.12139,-0.0814 -0.13598,-0.076 -0.0146,0.005 -0.36596,0.31329 -0.78082,0.6843 -3.5444,3.16981 -7.15205,6.14107 -9.80339,8.07406 -2.90908,2.1209 -4.954521,3.28733 -6.318781,3.60334 -0.30088,0.0697 -1.41327,0.0692 -2.01854,-8.7e-4 -1.65179,-0.19125 -3.34569,-0.64204 -5.46838,-1.4553 -0.62764,-0.24047 -1.78906,-0.72898 -2.3002,-0.9675 l -0.28617,-0.13354 -0.12072,0.0874 c -0.0664,0.0481 -0.2112,0.11493 -0.32179,0.14852 -0.30766,0.0934 -0.57342,0.0681 -1.09672,-0.10467 -0.450426,-0.1487 -0.514056,-0.15183 -0.634686,-0.0312 -0.10455,0.10456 -0.091,0.2081 0.10173,0.77656 1.013096,2.98834 3.078966,6.47094 5.764036,9.71695 0.62087,0.75058 1.16605,1.36841 2.11842,2.40077 l 0.18176,0.19703 -0.15582,-0.005 c -0.0857,-0.003 -0.21494,-0.01 -0.28718,-0.015 z m 4.49171,-10.89487 c 1.74617,-0.38557 4.946671,-2.44926 9.591881,-6.18488 2.21597,-1.78205 5.07159,-4.2282 7.31149,-6.26308 0.5934,-0.53909 0.66896,-0.5976 0.96497,-0.74718 0.29436,-0.14874 0.54335,-0.21831 1.04498,-0.29197 0.95282,-0.13991 1.3613,-0.29817 3.3928,-1.3145 1.26474,-0.63273 1.56646,-0.70537 3.14987,-0.7583 0.47358,-0.0158 0.97928,-0.0423 1.12376,-0.0589 0.68184,-0.0782 1.10988,-0.25283 1.4751,-0.60176 0.2828,-0.27019 0.36327,-0.4199 0.3411,-0.63466 -0.0229,-0.2222 -0.16469,-0.56146 -0.3573,-0.85513 -0.21563,-0.32875 -0.88555,-0.99915 -1.26917,-1.27007 -1.67392,-1.18216 -3.74522,-1.52642 -5.85235,-0.97269 -0.46959,0.1234 -0.70567,0.2117 -1.07998,0.40395 -0.44311,0.22757 -0.80779,0.52281 -1.5762,1.27607 -1.20883,1.185 -1.72905,1.5923 -3.13779,2.45667 -4.234,2.59788 -8.65262,4.82768 -11.79227,5.9508 -1.473961,0.52726 -2.825661,0.86441 -3.866341,0.96435 -0.43837,0.0421 -1.20672,0.019 -1.53359,-0.046 -0.31645,-0.063 -0.64387,-0.18931 -0.87988,-0.33943 -0.31296,-0.19907 -1.29316,-1.23094 -2.19648,-2.31228 -0.22564,-0.2701 -0.41374,-0.48025 -0.418,-0.46702 -0.004,0.0132 -0.0609,0.2408 -0.12593,0.50568 -0.52217,2.12792 -1.48887,4.46994 -2.86744,6.94694 -0.27551,0.49503 -0.83964,1.4424 -1.09499,1.83888 -0.0982,0.15251 -0.16873,0.28715 -0.15668,0.2992 0.0328,0.0328 1.27166,0.57252 1.85146,0.80658 2.66909,1.07749 4.705,1.60274 6.73441,1.73741 0.33506,0.0222 0.97339,-0.0136 1.22257,-0.0686 z m 21.311181,-11.48735 c 1.87539,-0.2565 3.61888,-1.04386 4.71762,-2.13048 0.48436,-0.47902 0.81766,-0.98879 0.97079,-1.48478 0.0854,-0.27658 0.0827,-0.31982 -0.0185,-0.29818 -0.22573,0.0483 -0.62578,0.0778 -1.41396,0.10442 -1.18034,0.0399 -1.6498,0.10557 -2.21999,0.31068 -0.11642,0.0419 -0.58636,0.26348 -1.04431,0.49243 -1.94909,0.97446 -2.35232,1.12941 -3.30195,1.26885 -0.76468,0.11229 -1.08969,0.25083 -1.55094,0.6611 -0.15597,0.13873 -0.28358,0.26303 -0.28358,0.27622 0,0.0363 0.30869,0.23817 0.54992,0.35956 0.49913,0.25118 1.06383,0.39413 1.96032,0.49625 0.21978,0.025 1.31668,-0.0126 1.63457,-0.0561 z m -18.22199,-8.30277 c 0.15701,-0.0321 0.39713,-0.0963 0.53359,-0.14263 0.2523,-0.0857 5.58923,-2.32325 5.97666,-2.50574 1.0466,-0.49296 1.79601,-1.49522 1.93261,-2.58469 0.0182,-0.14483 0.0301,-1.08035 0.0301,-2.362 v -2.12218 l -0.15325,-0.0307 c -0.32716,-0.0656 -15.529161,-2.80471 -15.566291,-2.80471 -0.0326,0 -0.0412,0.42271 -0.0503,2.47375 -0.0105,2.38938 -0.013,2.48221 -0.0718,2.72185 -0.24694,1.00602 -0.85274,1.79845 -1.78802,2.3389 -0.12863,0.0743 -0.96616,0.44724 -1.86117,0.82871 -0.89501,0.38146 -1.63749,0.70256 -1.64995,0.71356 -0.0125,0.011 0.14414,0.22259 0.348,0.47019 0.28005,0.34013 0.80858,0.99771 0.93392,1.16194 0.005,0.006 2.36342,0.44257 5.24159,0.96978 5.18373,0.94953 5.23599,0.95844 5.54593,0.94546 0.172091,-0.007 0.441351,-0.0394 0.598371,-0.0714 z m 39.18136,-1.41892 c 2.9299,-0.27809 5.73494,-1.54577 7.81953,-3.5339 l 0.24883,-0.23732 -0.01,-0.52724 c -0.008,-0.43658 -10e-4,-0.55286 0.0395,-0.67619 0.0689,-0.20757 0.31008,-0.45767 0.66896,-0.69381 0.64036,-0.42137 0.95148,-0.84361 1.05377,-1.43019 0.0312,-0.17921 0.0721,-0.30013 0.13865,-0.41067 0.17709,-0.29405 0.70568,-0.72708 1.04096,-0.85278 l 0.13339,-0.05 0.12457,-0.3408 c 0.352,-0.96304 0.59425,-2.00573 0.72608,-3.12517 0.0643,-0.54611 0.0743,-2.17937 0.0165,-2.69997 -0.0744,-0.67018 -0.23211,-1.60538 -0.27072,-1.60538 -0.0115,0 -0.0299,0.0361 -0.041,0.0803 -0.0485,0.19404 -0.2098,0.52414 -0.35518,0.72677 -0.29273,0.40801 -0.32291,0.51311 -0.27265,0.9495 0.0198,0.17152 0.0281,0.34232 0.0185,0.37954 -0.0319,0.12354 -0.32379,0.50482 -0.3943,0.51504 -0.18926,0.0274 -0.33624,-0.34188 -0.57301,-1.43978 -0.15093,-0.69986 -0.18949,-0.84242 -0.31119,-1.15048 -0.19533,-0.49445 -0.53683,-0.90189 -0.85603,-1.02132 -0.29963,-0.1121 -0.54201,-0.11637 -0.53953,-0.01 6.4e-4,0.0278 0.0677,0.10306 0.14907,0.16728 0.19452,0.15354 0.42327,0.46014 0.47763,0.64015 0.0832,0.27542 0.0452,0.45273 -0.1547,0.7234 -0.24762,0.33519 -0.41695,0.70732 -0.4561,1.00239 -0.025,0.18825 0.0357,0.41505 0.17107,0.63992 0.14341,0.23815 0.17107,0.36086 0.15549,0.68979 -0.0162,0.34271 -0.0989,0.54119 -0.36442,0.87455 -0.39548,0.49658 -0.5338,0.76497 -0.5338,1.03575 0,0.0853 0.0342,0.21633 0.0935,0.35829 0.086,0.20586 0.0935,0.24949 0.0934,0.54486 -1.7e-4,0.61165 -0.23453,1.41587 -0.65446,2.24577 -0.27421,0.54192 -0.40987,0.72332 -0.9072,1.2131 -0.25267,0.24883 -0.65899,0.6929 -0.90293,0.98682 -0.51474,0.62019 -0.83549,0.91045 -1.00608,0.91045 -0.189,0 -0.35986,-0.27764 -0.44008,-0.71512 -0.0374,-0.20405 -0.0449,-0.3735 -0.0337,-0.75891 0.0174,-0.59535 0.0948,-0.94542 0.28288,-1.27964 0.26141,-0.46442 0.35448,-0.68104 0.39682,-0.92357 0.0675,-0.38658 -0.006,-0.72378 -0.2404,-1.10322 -0.18451,-0.29868 -0.21236,-0.47713 -0.23108,-1.48053 -0.0174,-0.93297 -0.0307,-1.00212 -0.22499,-1.16842 -0.19069,-0.16322 -0.45534,-0.23228 -0.88134,-0.22998 -0.19265,0.001 -0.49187,0.0239 -0.66493,0.0507 -1.01387,0.15725 -1.55989,-0.0787 -1.77395,-0.76643 -0.0909,-0.29211 -0.099,-0.60345 -0.0295,-1.1362 0.0661,-0.5066 0.0605,-0.65219 -0.044,-1.15178 -0.0229,-0.10941 -0.0416,-0.28745 -0.0416,-0.39563 0,-0.16612 0.0129,-0.21688 0.0828,-0.32647 0.16962,-0.26571 0.4206,-0.45069 1.04093,-0.76721 0.23078,-0.11775 0.52813,-0.30364 0.75891,-0.47444 0.44329,-0.32809 0.66699,-0.44971 0.82711,-0.44971 0.15488,0 0.23637,0.0718 0.4124,0.36318 0.25845,0.42788 0.38885,0.49778 0.68111,0.36509 0.0744,-0.0338 0.18891,-0.0559 0.29117,-0.0563 0.14235,-5.4e-4 0.20822,0.0195 0.42324,0.12868 0.32185,0.16344 0.48022,0.20286 0.74475,0.18536 0.23997,-0.0159 0.47233,-0.10412 0.58438,-0.22194 0.187,-0.19664 0.10098,-0.37414 -0.25319,-0.52241 -0.29096,-0.12181 -0.3804,-0.18657 -0.47091,-0.34101 -0.0898,-0.15321 -0.0967,-0.34317 -0.0173,-0.47346 0.0306,-0.0502 0.16717,-0.18437 0.30353,-0.29826 0.28246,-0.23593 0.35343,-0.31728 0.40006,-0.45855 0.0944,-0.28617 -0.3106,-0.87042 -0.69279,-0.99931 -0.1604,-0.0541 -0.20479,0.0111 -0.27358,0.40192 -0.0702,0.39892 -0.12669,0.53805 -0.26916,0.66314 -0.21914,0.1924 -0.44899,0.17109 -0.96903,-0.0898 -0.21046,-0.1056 -0.43934,-0.212 -0.50862,-0.23644 -0.15934,-0.0562 -0.38245,-0.057 -0.5147,-0.002 -0.1583,0.0661 -0.42599,0.33982 -0.79291,0.81067 -0.60817,0.78042 -0.97051,1.02986 -1.21575,0.83696 -0.13535,-0.10647 -0.17638,-0.22103 -0.17682,-0.49364 -5e-4,-0.31044 0.0775,-0.49577 0.31941,-0.7589 0.27471,-0.29881 0.36486,-0.56334 0.36486,-1.07054 0,-0.33756 0.0552,-0.46793 0.25084,-0.59197 0.17859,-0.11326 0.43069,-0.15294 0.82112,-0.12922 0.37409,0.0227 0.58999,-0.0253 0.7515,-0.1671 0.12968,-0.11386 0.15821,-0.2194 0.18065,-0.66826 0.0147,-0.29348 0.009,-0.39744 -0.03,-0.53078 -0.0601,-0.20681 -0.1624,-0.29912 -0.30568,-0.27587 -0.13504,0.0219 -0.15929,0.0476 -0.3452,0.36584 -0.66836,1.14404 -0.98647,1.05781 -1.11934,-0.30341 -0.0725,-0.74281 0.0594,-1.2517 0.35989,-1.38812 0.16853,-0.0765 0.26035,-0.071 0.59285,0.0358 0.24839,0.0798 0.3325,0.0929 0.60926,0.0949 0.27782,0.002 0.34157,-0.007 0.47326,-0.0665 0.29472,-0.13327 0.51929,-0.45503 0.60722,-0.87005 0.076,-0.35892 0.094,-0.3305 -0.32887,-0.52109 -1.29209,-0.58236 -2.57206,-0.93321 -4.06454,-1.11412 -0.5999,-0.0727 -2.17304,-0.0727 -2.77294,0 -2.24801,0.27249 -4.19611,0.9858 -5.98229,2.19048 l -0.39264,0.26481 0.11535,0.0253 c 0.0634,0.0139 0.31894,0.019 0.56777,0.0114 0.68753,-0.0211 1.11323,-0.1516 2.22782,-0.68316 0.51663,-0.24638 0.52165,-0.24804 0.71678,-0.23702 0.16214,0.009 0.22318,0.0282 0.34898,0.10894 0.28502,0.1829 0.36436,0.43773 0.2127,0.68313 -0.12213,0.19761 -0.52634,0.34001 -0.96802,0.34103 -0.4214,9.7e-4 -0.74833,0.13451 -0.99864,0.40791 -0.17295,0.18891 -0.30253,0.44756 -0.34877,0.6962 -0.0282,0.15194 -0.0256,0.19553 0.0193,0.31303 0.0662,0.17331 0.19898,0.32541 0.30429,0.34854 0.12672,0.0278 0.37032,-0.0793 0.70739,-0.31118 0.51405,-0.35358 0.80526,-0.45404 1.0873,-0.37507 0.15182,0.0425 0.32195,0.17442 0.38688,0.29998 0.0618,0.11952 0.0376,0.25586 -0.11021,0.62052 -0.24588,0.60665 -0.26155,0.66851 -0.28361,1.12005 l -0.0205,0.41952 -0.0864,0.0689 c -0.0475,0.0379 -0.27094,0.14838 -0.49652,0.24554 -0.91642,0.39475 -1.3347,0.70318 -1.5697,1.15749 -0.1308,0.25286 -0.28196,0.41344 -0.59694,0.63416 -0.3132,0.21946 -0.37794,0.29946 -0.39784,0.49157 -0.0834,0.80527 -0.10027,0.87266 -0.24748,0.98931 -0.0656,0.052 -0.10586,0.0588 -0.28089,0.0475 -0.24483,-0.0158 -0.48911,-0.12796 -0.71445,-0.32809 -0.16416,-0.1458 -0.2453,-0.1765 -0.39315,-0.14876 -0.30333,0.0569 -0.3703,0.56395 -0.15258,1.15518 0.0562,0.15251 0.16406,0.42834 0.23976,0.61296 0.0757,0.18462 0.17734,0.48672 0.22584,0.67134 0.0783,0.29821 0.0885,0.38454 0.0906,0.7735 0.003,0.48898 -0.0345,0.69823 -0.14844,0.83359 -0.0824,0.0979 -0.21827,0.11482 -0.35487,0.0442 -0.19881,-0.10281 -0.69837,-0.71911 -1.13209,-1.39666 -0.31089,-0.48566 -0.79293,-1.45529 -0.92875,-1.8682 -0.18187,-0.55287 -0.20311,-0.75107 -0.16334,-1.5242 0.0758,-1.4735 0.18767,-1.92768 0.74972,-3.04347 0.33607,-0.66717 0.412,-0.8852 0.46318,-1.3299 l 0.0196,-0.17019 -0.15587,0.17019 c -0.59854,0.65352 -1.23758,1.5377 -1.69467,2.34475 -1.90032,3.35531 -2.26891,7.35318 -1.01311,10.98865 1.23344,3.57073 3.95108,6.48404 7.41595,7.94989 1.15109,0.48698 2.58808,0.85603 3.76171,0.96609 0.18462,0.0173 0.38165,0.0359 0.43783,0.0413 0.32774,0.0316 1.70124,0.0146 2.13261,-0.0264 z m -5.99014,-1.26857 c -0.0587,-0.031 -0.14784,-0.10597 -0.19805,-0.16654 -0.18707,-0.22571 -0.62182,-1.16265 -0.83072,-1.79027 -0.16028,-0.48158 -0.23093,-1.09745 -0.33798,-2.9463 -0.0629,-1.08649 -0.0684,-1.14154 -0.13544,-1.34939 -0.0617,-0.19155 -0.23865,-0.33871 -0.58848,-0.48951 -0.56867,-0.24515 -0.77653,-0.35937 -0.92791,-0.50994 -0.21996,-0.21877 -0.24546,-0.31742 -0.27569,-1.06624 -0.0363,-0.89859 0.0114,-1.19438 0.23887,-1.48101 0.0607,-0.0764 0.15018,-0.20465 0.19895,-0.28491 0.18084,-0.29761 0.33996,-0.95777 0.37582,-1.55918 0.0257,-0.43106 0.0531,-0.49039 0.27707,-0.59979 0.31881,-0.15574 0.78314,-0.16926 1.1806,-0.0344 0.24345,0.0826 0.36712,0.16794 0.52349,0.36117 0.35919,0.44389 0.47452,0.52267 0.97111,0.66331 0.50139,0.14199 0.60682,0.24616 0.57002,0.5632 -0.035,0.30151 0.10702,0.56826 0.43296,0.81328 0.23991,0.18034 0.38659,0.25109 0.83612,0.40325 0.43102,0.1459 0.59853,0.23445 0.77235,0.40827 0.18125,0.18125 0.26364,0.37051 0.26364,0.60563 0,0.27031 -0.0898,0.39456 -0.41652,0.57616 -0.13276,0.0738 -0.28849,0.17197 -0.34606,0.21815 -0.1264,0.10142 -0.21373,0.28213 -0.2146,0.44405 -7.4e-4,0.1373 0.0823,0.48049 0.18568,0.76693 0.10436,0.28932 0.12339,0.454 0.0631,0.54601 -0.0575,0.0878 -0.43836,0.27975 -0.72434,0.36505 -0.34633,0.1033 -0.49612,0.30337 -0.60321,0.80566 -0.0314,0.14736 -0.0979,0.36409 -0.14786,0.48161 -0.20079,0.4729 -0.58992,1.15495 -0.92293,1.61767 -0.23258,0.32318 -0.2836,0.44958 -0.28159,0.69762 0.002,0.23064 0.0594,0.43739 0.31044,1.11543 0.23837,0.64387 0.22678,0.88618 -0.0422,0.88271 -0.0549,-7.1e-4 -0.14791,-0.0267 -0.20664,-0.0577 z m 2.77457,-21.315 c -0.11478,-0.0766 -0.32943,-0.38242 -0.37934,-0.5405 -0.021,-0.0666 -0.0412,-0.44634 -0.0522,-0.98411 -0.0172,-0.84179 -0.0206,-0.88106 -0.0866,-1.01511 -0.0874,-0.17745 -0.17945,-0.22537 -0.43339,-0.22558 -0.10916,-9e-5 -0.2467,-0.0136 -0.30564,-0.0299 -0.1414,-0.0393 -0.28689,-0.17684 -0.28689,-0.27127 0,-0.18166 0.32902,-0.39203 0.74432,-0.47591 0.46994,-0.0949 1.74857,-0.0366 2.30215,0.10497 0.57405,0.14682 0.86483,0.45003 0.86483,0.9018 0,0.21492 -0.0802,0.37259 -0.31858,0.6264 -0.21836,0.23249 -0.52405,0.46824 -0.93298,0.71954 -0.15815,0.0972 -0.30188,0.20844 -0.32885,0.25454 -0.0264,0.045 -0.0902,0.21981 -0.14193,0.38837 -0.11034,0.35965 -0.17888,0.50441 -0.2686,0.56725 -0.0942,0.066 -0.26025,0.057 -0.37633,-0.0205 z M 89.292509,165.7612 c 0.92035,-0.39306 1.75726,-0.76158 1.85982,-0.81893 0.84646,-0.47337 1.48009,-1.30561 1.67542,-2.20056 0.0552,-0.25274 0.0573,-0.36818 0.0501,-2.72205 l -0.007,-2.45812 -11.587946,-2.09446 c -6.37337,-1.15195 -11.6048,-2.09174 -11.62539,-2.08843 -0.043,0.007 0.19888,0.4098 0.35009,0.58301 0.093,0.10656 0.11722,0.11572 0.78193,0.29591 1.93661,0.52498 3.00636,0.91839 4.33454,1.59405 2.0902,1.06331 4.31268,2.62318 6.56747,4.60946 1.78256,1.57027 3.91123,3.73596 5.560466,5.65714 0.16856,0.19636 0.32022,0.35716 0.33702,0.35733 0.0168,1.6e-4 0.78356,-0.32129 1.7039,-0.71435 z m 38.191881,-2.2699 c -0.0121,-0.0201 -0.10326,-0.1547 -0.20261,-0.29919 -1.33765,-1.94537 -2.1452,-4.22549 -2.34666,-6.62585 -0.0379,-0.45218 -0.0379,-1.73851 1.5e-4,-2.18916 0.1757,-2.08302 0.77697,-4.01603 1.79341,-5.76564 1.53278,-2.63837 3.89896,-4.6921 6.70686,-5.82122 l 0.43054,-0.17313 v -5.82165 -5.82166 l -0.18516,-0.32413 c -0.73025,-1.27838 -1.25795,-2.54355 -1.62052,-3.88516 -0.1255,-0.46442 -0.2777,-1.17377 -0.31134,-1.45115 -0.0191,-0.1578 -0.0156,-0.17144 0.0647,-0.25181 0.0838,-0.0838 0.091,-0.0853 0.50675,-0.1043 0.59094,-0.0271 1.30621,-0.0735 1.43608,-0.0932 l 0.10946,-0.0166 -5.1e-4,-0.80743 c -3.7e-4,-0.58768 -0.0119,-0.8611 -0.0423,-1.00466 -0.11506,-0.54294 -0.55996,-1.0124 -1.08403,-1.14387 -0.0946,-0.0237 -14.33132,-2.59938 -31.63707,-5.72364 -23.277487,-4.20235 -31.518307,-5.67996 -31.669837,-5.67853 -0.61732,0.006 -1.14767,0.38215 -1.39232,0.98791 l -0.0676,0.16741 -0.008,9.17609 -0.007,9.17608 0.0805,-0.0527 c 1.42568,-0.93435 2.94019,-1.36768 4.01639,-1.14918 0.77529,0.1574 1.40574,0.4053 1.94541,0.76495 0.78157,0.52085 1.66135,1.84505 1.99679,3.00545 0.2422,0.83786 0.21145,1.79754 -0.0854,2.66532 -0.27014,0.78968 -0.86015,1.72818 -1.62958,2.59208 l -0.20414,0.2292 0.062,0.25242 c 0.059,0.24028 0.0988,0.46204 0.1385,0.77185 0.0145,0.11296 0.0274,0.13723 0.067,0.12576 0.027,-0.008 0.48761,-0.0828 1.02359,-0.16652 0.69441,-0.10852 0.98803,-0.14383 1.0216,-0.12284 0.064,0.04 0.10989,0.28788 0.15144,0.81813 0.0758,0.96719 -0.0917,1.72255 -0.47099,2.12355 -0.13873,0.14669 -0.44396,0.33648 -0.54113,0.33648 -0.0631,0 -0.0687,0.0423 -0.0233,0.17417 0.0452,0.13113 0.0351,0.24785 -0.0327,0.38042 -0.0206,0.0401 -0.26723,0.27657 -0.54818,0.5254 -0.28096,0.24883 -0.52527,0.4826 -0.54291,0.51947 -0.0207,0.0432 -0.0322,0.32886 -0.0324,0.8027 -3.9e-4,1.03535 -0.048,2.10038 -0.10348,2.31327 -0.0872,0.33466 -0.36391,0.73215 -0.60695,0.87179 -0.0666,0.0383 -0.19078,0.084 -0.27585,0.1017 -0.22662,0.047 -1.20006,0.0391 -1.76706,-0.0143 l -0.49228,-0.0464 -0.0876,0.0829 c -0.31166,0.29499 -0.71562,1.06007 -1.17651,2.22825 -0.38578,0.9778 -0.46705,1.32732 -0.46494,1.99944 0.001,0.38057 0.0129,0.50936 0.0632,0.69576 0.034,0.12581 0.0661,0.23206 0.0713,0.23611 0.0141,0.0108 57.881577,10.46084 57.943787,10.46382 0.0348,0.002 0.0453,-0.01 0.0308,-0.034 z m -5.49815,-7.84544 c -1.7018,-0.28985 -43.526077,-7.86732 -43.581057,-7.89575 -0.11334,-0.0586 -0.24307,-0.1959 -0.30727,-0.32518 -0.0541,-0.10896 -0.0556,-0.43115 -0.0642,-14.06375 -0.006,-10.12538 4e-5,-13.99369 0.0235,-14.10334 0.0453,-0.2117 0.16649,-0.36614 0.36261,-0.46209 0.13917,-0.0681 0.18892,-0.0776 0.34509,-0.0659 0.29085,0.0219 43.545077,7.84147 43.667087,7.89427 0.14719,0.0637 0.33137,0.26851 0.36981,0.41127 0.0219,0.0814 0.0289,4.27181 0.0237,14.13731 -0.007,12.99124 -0.011,14.02813 -0.0558,14.10982 -0.15294,0.2788 -0.45562,0.41914 -0.78351,0.3633 z m 0.37057,-0.31884 c 0.0513,-0.0313 0.11698,-0.093 0.14595,-0.13725 0.0505,-0.0771 0.053,-0.64092 0.0601,-14.03477 l 0.007,-13.95439 -0.0658,-0.13048 c -0.0428,-0.0849 -0.1015,-0.14837 -0.16795,-0.18166 -0.0641,-0.0321 -8.20913,-1.51398 -21.87042,-3.979 -18.860777,-3.40319 -21.781167,-3.92357 -21.864887,-3.89594 -0.0531,0.0175 -0.13491,0.0718 -0.1817,0.1207 l -0.0851,0.0888 -0.007,14.01886 -0.007,14.01884 0.0668,0.0993 c 0.0368,0.0546 0.10237,0.11639 0.14577,0.13727 0.0959,0.0461 43.414067,7.87835 43.599917,7.88317 0.0839,0.002 0.16507,-0.0171 0.22462,-0.0535 z M 96.345069,144.99104 c -10.05265,-1.81735 -14.694476,-2.66774 -14.724236,-2.6975 -0.0543,-0.0543 -0.012,-0.19951 0.0623,-0.21383 0.0617,-0.0119 29.501717,5.29831 29.561587,5.33211 0.0255,0.0144 0.0438,0.0662 0.0438,0.12369 0,0.0971 -0.003,0.0991 -0.13135,0.10428 -0.0722,0.003 -6.7377,-1.18902 -14.812131,-2.64875 z m 3.883861,-1.99859 c -10.288901,-1.86809 -18.719277,-3.40872 -18.734187,-3.42363 -0.0394,-0.0394 -0.0153,-0.18432 0.0358,-0.21587 0.0498,-0.0307 37.555407,6.76281 37.617047,6.81372 0.0524,0.0432 0.0457,0.18835 -0.01,0.20958 -0.0254,0.01 -0.0812,0.0166 -0.12405,0.0152 -0.0428,-0.001 -8.49607,-1.53094 -18.78497,-3.39903 z m 15.02398,0.0475 c -2.00965,-0.36499 -3.67451,-0.68071 -3.69968,-0.7016 -0.0641,-0.0532 -0.0573,-0.16855 0.0123,-0.20577 0.0451,-0.0241 0.89118,0.11906 3.78725,0.64085 2.05107,0.36955 3.74893,0.68331 3.77301,0.69725 0.0253,0.0147 0.0438,0.0671 0.0438,0.12433 0,0.0971 -0.002,0.0991 -0.13135,0.10376 -0.0722,0.003 -1.77561,-0.29384 -3.78526,-0.65882 z m -22.071811,-3.98646 c -8.038116,-1.45335 -11.524196,-2.09464 -11.555246,-2.12568 -0.0543,-0.0543 -0.0297,-0.18065 0.0403,-0.20752 0.0421,-0.0161 23.114547,4.13129 23.230727,4.17587 0.0601,0.023 0.0866,0.14756 0.0428,0.2004 -0.0207,0.025 -0.081,0.0423 -0.14191,0.0408 -0.0582,-0.001 -5.285741,-0.93918 -11.616671,-2.08385 z m 20.505021,1.02007 c -2.87139,-0.52019 -5.23963,-0.9615 -5.26276,-0.9807 -0.0531,-0.0441 -0.0395,-0.17059 0.0226,-0.20943 0.0343,-0.0214 1.49681,0.23193 5.35615,0.92788 2.91996,0.52654 5.32611,0.97082 5.34699,0.98728 0.0209,0.0165 0.034,0.0704 0.0292,0.11998 -0.008,0.085 -0.0161,0.0904 -0.14014,0.0954 -0.0722,0.003 -2.48066,-0.42025 -5.35205,-0.94043 z m -13.22661,-5.06383 c -10.226291,-1.84367 -18.626087,-3.36319 -18.666227,-3.37671 -0.0585,-0.0197 -0.073,-0.0441 -0.073,-0.12271 0,-0.0717 0.0157,-0.10374 0.0584,-0.119 0.0532,-0.019 37.136347,6.64286 37.317857,6.70408 0.0931,0.0314 0.11843,0.17689 0.0407,0.23372 -0.0285,0.0209 -0.0592,0.0368 -0.0682,0.0353 -0.009,-0.001 -8.38328,-1.51105 -18.60957,-3.35471 z m -11.246421,0.64472 c -5.419356,-0.9806 -7.552406,-1.37719 -7.585566,-1.41034 -0.0551,-0.0551 -0.0329,-0.18175 0.0366,-0.20842 0.0411,-0.0158 15.178536,2.70079 15.291896,2.74429 0.0613,0.0235 0.0886,0.14754 0.0443,0.20097 -0.0208,0.0251 -0.0807,0.0422 -0.1419,0.0405 -0.0582,-0.002 -3.49863,-0.61674 -7.64533,-1.36705 z m 8.69676,-3.79529 c -11.29513,-2.04178 -16.276276,-2.95323 -16.294196,-2.98152 -0.0442,-0.0698 -0.0293,-0.13987 0.039,-0.18347 0.0595,-0.0379 1.60855,0.23666 16.396796,2.90668 13.180851,2.3798 16.341991,2.95901 16.387451,3.00266 0.0476,0.0457 0.0511,0.0656 0.0225,0.12828 -0.0289,0.0635 -0.0518,0.0738 -0.15849,0.0712 -0.0686,-0.002 -7.44545,-1.32638 -16.393071,-2.94381 z m 2.476691,-2.23574 c -10.250371,-1.85219 -18.666387,-3.37486 -18.702267,-3.38372 -0.0781,-0.0193 -0.1177,-0.14277 -0.0658,-0.20531 0.0198,-0.0239 0.0754,-0.0434 0.12357,-0.0434 0.094,0 37.232597,6.69603 37.354507,6.73497 0.13322,0.0426 0.096,0.27943 -0.0421,0.26771 -0.017,-0.001 -8.41758,-1.51805 -18.66795,-3.37025 z m -33.815207,26.97249 c 0.97952,-0.0869 1.85117,-0.22106 2.72915,-0.42018 0.62747,-0.1423 1.389,-0.35988 1.60489,-0.45852 0.19623,-0.0897 0.35076,-0.2328 0.35076,-0.3249 0,-0.0938 -0.19308,-0.29422 -0.39871,-0.41394 -0.35783,-0.20831 -0.56962,-0.359 -0.7727,-0.54976 -0.42517,-0.39938 -0.74248,-0.92725 -0.89198,-1.48386 -0.0705,-0.26259 -0.078,-0.34053 -0.0799,-0.8298 -0.003,-0.76047 0.0721,-1.08547 0.49887,-2.15997 0.51667,-1.30098 1.00274,-2.15479 1.33882,-2.35175 0.11426,-0.067 0.13619,-0.07 0.32355,-0.0441 0.73398,0.10127 1.9365,0.11596 2.14203,0.0262 0.12062,-0.0527 0.33763,-0.2777 0.44565,-0.46207 0.1371,-0.23398 0.16489,-0.41794 0.19588,-1.29669 0.0159,-0.45049 0.0297,-1.10147 0.0307,-1.44663 0.001,-0.4273 0.0132,-0.65434 0.0376,-0.71148 0.0197,-0.0462 0.27854,-0.30267 0.57516,-0.57003 0.39872,-0.35937 0.54163,-0.50575 0.54817,-0.56147 0.006,-0.0526 -0.0452,-0.15812 -0.17015,-0.34942 -0.25094,-0.38421 -0.64556,-1.19967 -0.78637,-1.625 -0.0653,-0.19719 -0.14803,-0.50905 -0.18388,-0.69302 -0.0485,-0.24892 -0.0764,-0.33449 -0.10897,-0.33448 -0.0804,3e-5 -4.26335,0.66296 -4.27845,0.67807 -0.008,0.008 0.058,0.11638 0.14695,0.24044 0.16137,0.22492 0.19316,0.32236 0.1268,0.38871 -0.0744,0.0744 -0.16776,0.039 -0.26476,-0.10056 -0.31569,-0.45411 -0.49582,-0.61479 -0.82896,-0.73943 -0.52614,-0.19685 -1.06172,-0.0325 -1.27881,0.39233 -0.0808,0.15811 -0.0881,0.19673 -0.0879,0.46619 1.4e-4,0.24451 0.0137,0.33296 0.0807,0.5273 0.12692,0.36818 0.2953,0.64445 0.54396,0.89247 0.37076,0.3698 0.77083,0.51741 1.31256,0.48427 0.15455,-0.009 0.31505,-0.0254 0.35666,-0.0354 0.0923,-0.0223 0.17967,0.0529 0.1667,0.1434 -0.0147,0.10296 -0.15456,0.14534 -0.52436,0.15895 -0.67046,0.0247 -1.13684,-0.15635 -1.57439,-0.61109 l -0.19262,-0.2002 -0.0174,0.37192 c -0.0341,0.72924 -0.18475,1.36134 -0.45742,1.91892 -0.26958,0.55125 -0.5947,0.89283 -1.04734,1.10035 -0.25035,0.11479 -0.88912,0.27514 -1.32541,0.33273 -0.33809,0.0446 -1.12889,0.0451 -1.68178,9.7e-4 l -0.1568,-0.0125 0.0175,0.12746 c 0.0882,0.64362 0.0894,1.37698 0.003,1.99407 -0.34081,2.43895 -2.11487,4.22138 -5.20388,5.22842 -0.44196,0.14408 -0.51772,0.18632 -0.54757,0.30525 -0.0336,0.13401 0.0127,0.20837 0.32516,0.52199 1.4997,1.50515 3.65604,2.34501 6.49278,2.52882 0.53013,0.0343 1.85515,0.0113 2.46645,-0.0429 z m 8.96544,-14.70122 c 0.3141,-0.11752 0.53819,-0.42056 0.66601,-0.90067 0.0678,-0.25462 0.0932,-1.08311 0.0457,-1.4917 -0.0194,-0.16687 -0.0387,-0.30686 -0.0429,-0.31108 -0.0119,-0.012 -1.86336,0.28312 -1.8799,0.29966 -0.0277,0.0277 0.11666,0.64188 0.23332,0.99232 0.12111,0.36382 0.41147,0.99877 0.5945,1.30008 0.12003,0.19758 0.1385,0.20295 0.38322,0.11139 z m -2.89417,-2.42897 1.34268,-0.21251 -0.002,-0.20228 c -0.002,-0.19566 -0.0827,-0.63829 -0.12984,-0.71451 -0.0169,-0.0273 -0.0608,-0.004 -0.16434,0.0872 -0.45449,0.40078 -1.2297,0.81481 -2.1407,1.14333 -0.16857,0.0608 -0.29335,0.11069 -0.27729,0.11089 0.016,2e-4 0.63339,-0.0953 1.37187,-0.21216 z m 68.996227,-2.62903 c 1.1112,-0.37263 2.45806,-1.04498 3.62547,-1.80982 1.94978,-1.27742 3.76733,-2.96963 5.31754,-4.95085 0.83037,-1.06124 1.69858,-2.38244 2.38712,-3.6326 0.20373,-0.36993 0.97855,-1.9184 1.01648,-2.03147 0.0129,-0.0384 -0.0394,-0.0581 -0.29551,-0.11148 -0.54527,-0.11364 -1.37143,-0.3224 -2.03329,-0.5138 -2.18864,-0.6329 -3.97681,-1.41039 -5.37728,-2.33801 -0.58651,-0.38849 -0.95469,-0.6877 -1.41448,-1.1495 l -0.39941,-0.40117 -0.21597,0.28086 c -1.08573,1.412 -2.77526,2.67219 -4.74999,3.54295 -1.95966,0.86412 -4.19709,1.35451 -6.77818,1.48563 -0.63096,0.032 -0.69415,0.04 -0.69415,0.0868 0,0.23588 0.29285,1.4203 0.52589,2.12696 1.14066,3.45888 3.31034,6.32063 6.24591,8.23819 0.65722,0.42931 1.32029,0.79925 2.00767,1.12014 0.21961,0.10252 0.40996,0.1864 0.42298,0.1864 0.013,0 0.19717,-0.0582 0.4092,-0.12928 z m -0.76161,-2.85381 c -0.0247,-0.0247 -0.035,-0.1951 -0.035,-0.5802 0,-0.43838 -0.008,-0.552 -0.042,-0.57999 -0.0326,-0.0271 -0.20213,-0.0212 -0.76416,0.0268 -0.39721,0.0339 -0.7574,0.0539 -0.80042,0.0444 -0.0998,-0.0219 -0.22603,-0.15316 -0.2595,-0.26986 -0.0264,-0.0922 0.003,-0.28615 0.0583,-0.39042 0.0198,-0.037 0.0191,-0.0734 -0.002,-0.11298 -0.0255,-0.0477 -0.0611,-0.0584 -0.19419,-0.0584 -0.15036,0 -0.17169,-0.009 -0.27626,-0.11332 -0.10345,-0.10345 -0.11333,-0.12698 -0.11342,-0.27 l -1e-4,-0.15668 0.21902,-0.20678 c 0.37328,-0.35244 0.3392,-0.37118 -0.62645,-0.34437 -0.7805,0.0217 -0.8183,0.0161 -0.8183,-0.12019 0,-0.13471 0.0383,-0.14075 0.90833,-0.14343 l 0.81785,-0.003 0.10014,0.10903 c 0.0828,0.0902 0.10014,0.13155 0.10014,0.23943 0,0.1853 -0.0412,0.25497 -0.25186,0.42588 -0.10228,0.083 -0.18598,0.17425 -0.18598,0.2028 0,0.0796 0.0741,0.12502 0.16982,0.10401 0.0516,-0.0113 0.13153,1.7e-4 0.20496,0.0296 0.21288,0.0852 0.29326,0.31197 0.19441,0.54856 -0.0576,0.13789 -0.0553,0.21554 0.007,0.24714 0.031,0.0156 0.28643,0.005 0.64945,-0.0267 0.79166,-0.0695 0.89656,-0.0691 1.01607,0.004 0.16412,0.10006 0.18074,0.18326 0.16103,0.80568 -0.01,0.30297 -0.0304,0.56727 -0.0463,0.58734 -0.0366,0.0464 -0.14523,0.0472 -0.19096,10e-4 z m 4.28492,-1.41498 c -0.7577,-0.43759 -1.11217,-0.66654 -1.58542,-1.024 -0.74227,-0.56065 -0.88245,-0.70908 -0.77304,-0.81849 0.0696,-0.0696 0.159,-0.0314 0.40281,0.17208 0.59027,0.49253 1.2886,0.97767 1.88343,1.30846 0.36602,0.20354 0.39329,0.2248 0.39329,0.30647 0,0.14879 -0.12277,0.17 -0.32107,0.0555 z m 1.51781,-1.79435 c -2.35268,-1.35483 -4.45661,-3.26094 -5.90712,-5.35174 -0.52045,-0.75019 -0.59212,-0.92069 -0.40656,-0.96727 0.0943,-0.0237 0.0951,-0.0226 0.44706,0.52116 1.409,2.17721 3.77787,4.3401 6.22572,5.68436 0.35343,0.19409 0.42252,0.26829 0.34112,0.36637 -0.0695,0.0838 -0.19308,0.0392 -0.70022,-0.25288 z m -5.24573,-1.21423 c -1.01006,-1.12972 -2.06589,-2.70804 -2.65524,-3.96921 -0.10974,-0.23484 -0.12589,-0.29115 -0.0999,-0.34827 0.0224,-0.0492 0.0552,-0.0681 0.11802,-0.0681 0.0829,0 0.0965,0.0194 0.29062,0.41594 0.62811,1.28297 1.55566,2.65837 2.5537,3.7867 0.1897,0.21447 0.22776,0.30453 0.15813,0.37416 -0.0793,0.0793 -0.16241,0.0358 -0.36537,-0.19118 z m 6.79274,-0.4003 c -1.4584,-0.68995 -2.74739,-1.51633 -4.01346,-2.57306 -0.44744,-0.37346 -1.36226,-1.26432 -1.76495,-1.71874 -0.37674,-0.42512 -0.75988,-0.92043 -0.75988,-0.98234 0,-0.0665 0.0784,-0.14143 0.14806,-0.14143 0.0347,0 0.10957,0.0695 0.19494,0.18105 1.21051,1.58109 2.98508,3.12134 4.8672,4.22454 0.39191,0.22972 1.49739,0.79633 1.81661,0.93109 0.16367,0.0691 0.22379,0.16844 0.15332,0.25335 -0.0631,0.0761 -0.17869,0.0446 -0.64184,-0.17446 z m 1.95565,-1.70749 c -0.0401,-0.0137 -0.2503,-0.0798 -0.46702,-0.14693 -1.33317,-0.41303 -2.87812,-1.19603 -4.1402,-2.09831 -0.29367,-0.20994 -0.31109,-0.22812 -0.31109,-0.32452 0,-0.0888 0.0101,-0.10328 0.0776,-0.1111 0.059,-0.007 0.17997,0.0622 0.50388,0.28768 1.37837,0.95936 2.99777,1.73917 4.39516,2.11647 0.23707,0.064 0.26784,0.088 0.2569,0.20015 -0.008,0.083 -0.0179,0.0905 -0.12555,0.0957 -0.0642,0.003 -0.14959,-0.006 -0.18972,-0.0192 z m 0.65674,-2.09069 c -1.98326,-0.52398 -4.24105,-1.60508 -6.28065,-3.00736 -0.19543,-0.13436 -0.37603,-0.26501 -0.40134,-0.29032 -0.072,-0.072 -0.058,-0.18356 0.0278,-0.22266 0.065,-0.0296 0.0902,-0.0219 0.21161,0.0646 2.1268,1.51541 4.58353,2.70505 6.66133,3.22565 0.3365,0.0843 0.37966,0.10719 0.37966,0.20122 0,0.1608 -0.0837,0.16484 -0.59837,0.0289 z m -6.94972,-1.49751 c -0.17506,-0.15883 -0.45398,-0.4261 -0.61983,-0.59395 -0.26165,-0.26479 -0.30028,-0.31638 -0.29189,-0.38987 0.008,-0.0688 0.0254,-0.0865 0.0935,-0.0943 0.0728,-0.008 0.13035,0.036 0.43783,0.33697 0.1947,0.19061 0.4755,0.45618 0.624,0.59015 0.27013,0.24372 0.31635,0.32333 0.23497,0.40471 -0.0773,0.0773 -0.16488,0.0309 -0.47857,-0.25374 z m -63.730917,75.25864 c -0.10435,-0.0216 -0.44407,-0.0876 -0.75494,-0.14682 l -0.56522,-0.10757 0.0183,-0.41203 c 0.0506,-1.13926 0.13368,-9.00285 0.13407,-12.69221 2.6e-4,-2.41438 -0.006,-2.52652 -0.17293,-3.1857 -0.47451,-1.87184 -1.84029,-3.39317 -3.65773,-4.07431 -0.65541,-0.24563 -0.58611,-0.23711 -4.28359,-0.52684 -1.85422,-0.1453 -3.57489,-0.28388 -3.82373,-0.30795 -5.56189,-0.53816 -10.95395,-2.40206 -15.64519,-5.40813 -0.73899,-0.47354 -1.55535,-0.9715 -1.77179,-1.08076 -0.32906,-0.16611 -0.57182,-0.22332 -0.94763,-0.22332 -0.1873,0 -0.33806,-0.002 -0.33502,-0.006 0.0456,-0.0456 0.5815,-0.21531 1.09879,-0.34797 l 0.65675,-0.16842 0.5254,2.2e-4 c 0.47528,2.1e-4 0.55262,0.008 0.81079,0.0771 0.38191,0.10281 0.7324,0.27436 1.27621,0.62468 4.53494,2.92137 9.89725,4.82539 15.30952,5.436 0.67539,0.0762 0.98008,0.10154 4.56804,0.38005 1.64552,0.12773 3.10257,0.25352 3.23788,0.27954 0.65856,0.12664 1.46486,0.4807 2.0558,0.90273 1.12538,0.8037 1.92934,1.96471 2.2668,3.27348 0.17892,0.69392 0.17014,0.24138 0.18209,9.38924 0.006,4.60343 0.0101,8.36851 0.009,8.36684 -10e-4,-0.002 -0.0873,-0.0207 -0.19167,-0.0423 z m -6.62585,-1.15358 c -3.04788,-0.77534 -5.62296,-1.59317 -7.0595,-2.24204 -1.00927,-0.45587 -2.89163,-1.54251 -4.30953,-2.48778 -5.81393,-3.87596 -10.41081,-9.21429 -13.76728,-15.98788 -0.33579,-0.67765 -0.37742,-0.77765 -0.34939,-0.83918 0.0236,-0.0517 0.0552,-0.0699 0.12208,-0.0699 0.0879,0 0.0964,0.0128 0.32641,0.48891 1.59098,3.29396 3.7086,6.55568 5.97409,9.20177 0.91499,1.06871 2.53164,2.73347 3.47631,3.57976 2.44773,2.19283 4.93771,3.92625 7.86637,5.47622 0.88733,0.46961 1.78449,0.82894 3.35671,1.34443 1.38728,0.45486 3.89212,1.15677 5.21666,1.46182 0.11358,0.0262 0.15649,0.11865 0.0971,0.20929 -0.0256,0.0391 -0.0692,0.0705 -0.0969,0.0699 -0.0277,-6.3e-4 -0.41162,-0.093 -0.8531,-0.20534 z m 42.524197,-2.95732 c -0.0188,-0.0412 -0.0215,-0.0881 -0.007,-0.11457 0.0562,-0.10023 0.72007,-0.74968 0.7663,-0.74968 0.0702,0 0.11989,0.058 0.11989,0.13995 0,0.049 -0.10159,0.17809 -0.33999,0.43199 -0.2821,0.30043 -0.35428,0.3621 -0.42387,0.3621 -0.0601,0 -0.0929,-0.0198 -0.11566,-0.0698 z m 2.57933,-0.34657 c -0.35819,-0.35905 -0.40735,-0.43966 -0.31495,-0.51635 0.0806,-0.0669 0.16223,-0.014 0.51146,0.33173 0.34894,0.3454 0.39862,0.42515 0.31619,0.50758 -0.0806,0.0806 -0.15998,0.0306 -0.5127,-0.32296 z m -2.24754,-2.21835 c -0.35178,-0.35263 -0.40181,-0.43213 -0.32209,-0.51184 0.0806,-0.0806 0.15998,-0.0306 0.5127,0.32296 0.36672,0.3676 0.41717,0.4543 0.30066,0.51665 -0.0311,0.0166 -0.0739,0.0302 -0.0953,0.0302 -0.0214,0 -0.19955,-0.1611 -0.39597,-0.35799 z m 1.9415,0.29727 c -0.11599,-0.0676 -0.0624,-0.16839 0.28762,-0.5415 0.28037,-0.29884 0.35308,-0.36101 0.42221,-0.36101 0.0809,0 0.14394,0.0651 0.14394,0.14881 0,0.0443 -0.72963,0.78557 -0.77206,0.78434 -0.0168,-4.9e-4 -0.0536,-0.0143 -0.0817,-0.0306 z m 9.18092,-2.05242 c -0.30776,-0.10022 -0.57034,-0.33066 -0.71785,-0.63 -0.0877,-0.17807 -0.0932,-0.20792 -0.0932,-0.51141 0,-0.30447 0.005,-0.33295 0.0946,-0.51449 0.11792,-0.23954 0.32326,-0.4362 0.58481,-0.5601 0.17993,-0.0852 0.2205,-0.093 0.48813,-0.0929 0.26755,7e-5 0.3083,0.008 0.48864,0.0932 0.77929,0.36887 0.93129,1.37901 0.29567,1.96491 -0.21341,0.19672 -0.41324,0.27299 -0.74052,0.28265 -0.17722,0.005 -0.32169,-0.006 -0.4003,-0.0319 z m 0.62121,-0.26529 c 0.22981,-0.0692 0.41954,-0.23341 0.53799,-0.4657 0.0895,-0.17549 0.1019,-0.22603 0.10003,-0.40754 -0.003,-0.26384 -0.0842,-0.4571 -0.26947,-0.63906 -0.19018,-0.18681 -0.37706,-0.26523 -0.63325,-0.26574 -0.60502,-0.001 -1.04725,0.5787 -0.88001,1.15398 0.1434,0.49326 0.65415,0.77171 1.14471,0.62406 z m 9.18508,-12.10196 c -1.7036,-0.10293 -3.24199,-0.4594 -3.97226,-0.92044 -0.58625,-0.3701 -0.71675,-0.79017 -0.36607,-1.17833 0.42629,-0.47186 1.50104,-0.85938 2.99015,-1.07815 0.36576,-0.0537 1.31267,-0.14731 1.49447,-0.14769 l 0.0805,-1.6e-4 -0.008,-1.52512 -0.008,-1.52511 -0.30648,-0.0212 c -1.56691,-0.10852 -3.27288,-0.49809 -4.78696,-1.09312 -0.81542,-0.32046 -2.30614,-1.07807 -2.60338,-1.32309 -0.0554,-0.0457 -0.14541,-0.16609 -0.20005,-0.26763 -0.0904,-0.16804 -0.0994,-0.2069 -0.10009,-0.43272 -6.6e-4,-0.21315 0.0107,-0.27139 0.0804,-0.41333 0.0891,-0.18151 0.24251,-0.3361 0.43565,-0.4391 0.10533,-0.0562 0.16969,-0.0669 0.40266,-0.0669 l 0.27729,-8e-5 0.42324,0.2434 c 2.26534,1.30281 4.70808,1.96035 7.2826,1.96035 3.42182,0 6.61393,-1.16076 9.29663,-3.38059 0.43113,-0.35675 1.45645,-1.38184 1.81542,-1.81501 3.22277,-3.88901 4.24559,-8.98782 2.76819,-13.79957 -0.85485,-2.78417 -2.52565,-5.22935 -4.86633,-7.12177 -0.25938,-0.2097 -0.30962,-0.26535 -0.39367,-0.43608 -0.0837,-0.17009 -0.0962,-0.22455 -0.0953,-0.41602 0.001,-0.2733 0.0759,-0.45487 0.26685,-0.64924 0.19139,-0.19484 0.37416,-0.26857 0.66537,-0.2684 0.30552,1.9e-4 0.41966,0.0561 0.87395,0.42794 2.87443,2.35289 4.88147,5.61153 5.6761,9.21575 0.29013,1.31592 0.40012,2.47825 0.3738,3.94998 -0.0162,0.90301 -0.0522,1.36366 -0.16819,2.15048 -0.52184,3.53916 -2.23087,6.86933 -4.81231,9.37716 -1.8147,1.76295 -4.0047,3.08598 -6.38005,3.85432 -1.18137,0.38214 -2.62082,0.66473 -3.76157,0.73848 l -0.31026,0.0201 v 1.52549 1.5255 l 0.2554,0.0189 c 1.60238,0.11844 2.83175,0.38023 3.6413,0.77539 1.51323,0.73865 0.88178,1.71643 -1.44012,2.22997 -1.28995,0.2853 -2.97489,0.39924 -4.52178,0.30577 z M 49.233193,131.51724 c -0.0482,-0.006 -0.22548,-0.0313 -0.39404,-0.0562 -2.09635,-0.30965 -3.82693,-1.64045 -4.68518,-3.60285 -0.74705,-1.70814 -0.8479,-3.78668 -0.29169,-6.01203 0.20909,-0.83658 0.26801,-0.95883 0.42231,-0.87625 0.0761,0.0408 0.0759,0.13597 -10e-4,0.38004 -0.20066,0.63636 -0.40405,1.66792 -0.46784,2.37283 -0.0445,0.49147 -0.0182,1.68251 0.0461,2.09306 0.35379,2.25673 1.46905,3.9117 3.23525,4.80091 0.949,0.47779 1.92832,0.68395 3.08197,0.6488 0.62841,-0.0191 1.16232,-0.0928 1.75833,-0.2426 1.95206,-0.49059 3.75961,-1.54926 5.48031,-3.20976 l 0.39106,-0.37738 0.25518,-0.0101 c 0.46251,-0.0183 1.28614,0.18738 2.37324,0.59257 0.28186,0.10506 0.51901,0.19102 0.527,0.19102 0.008,0 -0.0908,-0.16593 -0.21956,-0.36874 -0.77358,-1.21861 -1.22251,-2.12477 -1.23172,-2.48618 -0.003,-0.12257 0.0233,-0.18221 0.25139,-0.56856 1.92273,-3.256 2.33015,-6.9452 1.05607,-9.56277 -0.33471,-0.68767 -0.68258,-1.16752 -1.2293,-1.69572 -0.43672,-0.42192 -0.78576,-0.67092 -1.32412,-0.9446 -0.95885,-0.48744 -1.90945,-0.68678 -3.10772,-0.6517 -1.32889,0.0389 -2.53988,0.3661 -3.92655,1.06094 -0.86924,0.43555 -1.55348,0.88086 -2.33272,1.51815 -0.46419,0.37962 -1.24626,1.12732 -1.56395,1.4952 -0.15903,0.18416 -0.22128,0.23657 -0.28101,0.23657 -0.0963,0 -0.15389,-0.0667 -0.13196,-0.15287 0.009,-0.0363 0.19315,-0.25651 0.40867,-0.48929 1.58573,-1.71277 3.59954,-3.00171 5.60687,-3.58869 1.98418,-0.58021 3.92986,-0.4651 5.46435,0.32328 1.86786,0.95966 3.02248,2.73542 3.35683,5.16268 0.063,0.45764 0.0718,1.75349 0.0151,2.23296 -0.21725,1.83726 -0.825,3.60894 -1.80025,5.24798 l -0.22221,0.37345 0.0483,0.16601 c 0.10303,0.35442 0.67718,1.39181 1.34838,2.43628 0.25467,0.39631 0.33063,0.53679 0.32355,0.59837 -0.0152,0.13195 -0.12176,0.1181 -0.62976,-0.0819 -1.04348,-0.41075 -2.30474,-0.78247 -2.6967,-0.79479 l -0.194,-0.006 -0.43356,0.42368 c -1.96079,1.91607 -4.32961,3.13011 -6.63599,3.40101 -0.33013,0.0388 -1.40281,0.0539 -1.64935,0.0232 z m 1.52721,-4.01783 c -0.42682,-0.18009 -0.66831,-0.54509 -0.67167,-1.0152 -0.003,-0.37544 0.17743,-0.67996 0.50174,-0.84827 0.10916,-0.0566 0.17573,-0.0682 0.39405,-0.0682 0.22904,0 0.28417,0.0105 0.43023,0.0823 0.21344,0.10481 0.4043,0.29567 0.50911,0.50911 0.0744,0.15145 0.0823,0.19695 0.0823,0.47401 0,0.33481 -0.0367,0.44477 -0.21708,0.65021 -0.23175,0.26394 -0.688,0.35976 -1.02865,0.21604 z m 4.52947,-2.08859 c -0.40417,-0.13275 -0.68542,-0.48191 -0.75751,-0.94042 -0.0727,-0.46218 0.12433,-0.85847 0.5303,-1.06677 0.20349,-0.10442 0.58202,-0.13025 0.8081,-0.0552 0.41324,0.13725 0.72915,0.6682 0.69687,1.17123 -0.0338,0.52645 -0.42046,0.88747 -0.97128,0.90686 -0.12843,0.005 -0.26635,-0.003 -0.30648,-0.0157 z m -6.36979,-0.6386 c -0.0647,-0.0414 -4.90687,-6.01903 -5.19337,-6.41117 -0.099,-0.13554 -0.11357,-0.32611 -0.0321,-0.42046 0.0528,-0.0612 1.37806,-1.05025 1.53735,-1.14738 0.10339,-0.063 0.18745,-0.0692 0.29228,-0.0214 0.0838,0.0382 4.77328,6.82729 4.81014,6.96378 0.049,0.18143 -0.006,0.24406 -0.59543,0.67845 -0.59533,0.43871 -0.65339,0.46411 -0.81888,0.35823 z m 5.07956,-2.88953 c -0.23982,-0.59053 -0.27161,-0.7579 -0.2702,-1.42295 0.002,-0.76244 0.0243,-0.86006 0.52322,-2.24755 0.36081,-1.00344 0.39557,-1.66312 0.11871,-2.25296 -0.17541,-0.3737 -0.45871,-0.59963 -0.85561,-0.68235 -0.36102,-0.0752 -0.99837,0.0352 -1.38148,0.23941 -0.2636,0.14049 -0.6273,0.45045 -0.86545,0.73755 -0.12108,0.14597 -0.22802,0.26837 -0.23763,0.27201 -0.0141,0.005 -0.6913,-0.97625 -0.76775,-1.11285 -0.0284,-0.0507 0.22999,-0.34909 0.48756,-0.56299 0.89139,-0.74021 2.05494,-1.14631 3.02637,-1.05625 1.21406,0.11255 2.08607,1.04238 2.21243,2.35914 0.058,0.60453 -0.074,1.27799 -0.43864,2.23771 -0.4165,1.09622 -0.4802,1.3593 -0.47623,1.96696 0.003,0.47605 0.0353,0.63275 0.245,1.19219 0.0677,0.18052 0.11812,0.33186 0.11215,0.33631 -0.0206,0.0153 -1.21491,0.39796 -1.24217,0.39796 -0.015,0 -0.10064,-0.1806 -0.19028,-0.40134 z m 79.399417,-7.40688 c -0.16745,-0.0551 -0.11699,-0.024 -1.65616,-1.02139 -1.78375,-1.15593 -2.5098,-1.66816 -3.55223,-2.50618 -1.02026,-0.82018 -1.71732,-1.46318 -3.14728,-2.90315 -1.27173,-1.28065 -1.27584,-1.28598 -1.27635,-1.65809 -1.6e-4,-0.11852 0.0183,-0.25265 0.043,-0.31168 0.046,-0.11019 1.2033,-1.81319 1.82866,-2.69103 0.68128,-0.95634 1.51715,-2.00282 2.27313,-2.84591 0.92058,-1.026647 2.40568,-2.481627 2.68,-2.625647 0.1836,-0.0964 0.5372,-0.1019 0.73663,-0.0115 0.10182,0.0462 0.47329,0.40132 1.57861,1.50929 0.79501,0.796897 1.4575,1.448897 1.47222,1.448877 0.0147,-2e-5 0.085,-0.10838 0.15608,-0.24081 0.65955,-1.228147 1.53997,-2.422927 2.50076,-3.393687 0.61675,-0.62316 1.22133,-1.17233 1.38606,-1.25905 0.14446,-0.076 0.18389,-0.0831 0.46435,-0.0831 0.27881,0 0.32039,0.007 0.4606,0.0812 0.0848,0.0447 0.56606,0.43433 1.06953,0.86593 1.07672,0.92302 1.50678,1.26885 2.17371,1.74802 0.27047,0.19432 0.53476,0.40229 0.58733,0.46216 0.27454,0.31269 0.32542,0.83357 0.11669,1.194547 -0.0462,0.0798 -0.42321,0.49264 -0.85213,0.93293 -1.26792,1.30157 -1.86083,2.06538 -2.60208,3.35209 l -0.2505,0.43484 0.16652,0.11667 c 0.0916,0.0642 0.29929,0.20575 0.46154,0.31463 0.31507,0.21141 0.45011,0.36843 0.51131,0.59456 0.0479,0.17683 0.0174,0.47391 -0.0649,0.63417 -0.0385,0.0749 -0.42269,0.55196 -0.85372,1.06007 -0.43102,0.50811 -0.7791,0.92748 -0.7735,0.93192 0.006,0.004 0.22178,0.16666 0.48039,0.36047 0.25861,0.19381 0.51173,0.40273 0.56248,0.46426 0.23176,0.28098 0.29496,0.77038 0.142,1.0995 -0.16634,0.35789 -0.27706,0.4472 -0.83901,0.67677 -1.69701,0.69328 -3.36898,1.7176 -4.71399,2.88802 -0.3836,0.33381 -0.53239,0.40436 -0.87567,0.41519 -0.174,0.005 -0.30704,-0.006 -0.39404,-0.0349 z m 0.6041,-0.26256 c 0.11412,-0.0339 0.2297,-0.11429 0.5088,-0.35392 1.39537,-1.19808 2.98601,-2.16633 4.79782,-2.92052 0.42539,-0.17707 0.55663,-0.27915 0.65606,-0.51029 0.1129,-0.26244 0.0645,-0.6295 -0.10956,-0.8318 -0.0437,-0.0508 -0.67711,-0.5418 -1.40756,-1.09114 -1.8691,-1.40564 -2.42163,-1.86839 -3.49856,-2.93006 -0.71984,-0.70964 -1.21678,-1.25435 -2.0094,-2.20259 -0.33026,-0.3951 -0.64137,-0.74765 -0.69135,-0.78345 -0.13927,-0.0998 -0.34421,-0.12742 -0.60188,-0.0812 -0.27947,0.0501 -1.64553,0.50141 -2.29112,0.75699 -0.27292,0.10804 -0.78619,0.338 -1.1406,0.51102 -1.14696,0.55992 -1.67347,0.88768 -3.1133,1.93804 l -1.07231,0.78226 0.0426,0.102 c 0.0449,0.10738 1.68432,1.80262 2.34797,2.42786 1.26843,1.19502 2.41645,2.1311 3.75585,3.06247 0.75338,0.52387 3.15232,2.06285 3.2954,2.11408 0.17996,0.0644 0.33849,0.0675 0.53113,0.0103 z m 5.59756,-6.72272 c 0.42631,-0.50283 0.79429,-0.95132 0.81773,-0.99665 0.11094,-0.21454 0.0671,-0.52707 -0.0951,-0.6789 -0.14357,-0.13432 -0.86109,-0.61 -0.884,-0.58604 -0.0123,0.0129 -0.16245,0.26642 -0.33361,0.56342 -0.17117,0.297 -0.33199,0.56303 -0.35738,0.59119 -0.0254,0.0282 -0.11622,0.0855 -0.20183,0.12736 -0.13275,0.065 -0.18523,0.0745 -0.35647,0.0648 -0.17927,-0.0101 -0.22547,-0.0265 -0.43078,-0.15267 -0.5391,-0.3313 -1.16491,-0.83083 -1.9169,-1.5301 -0.6696,-0.62265 -2.11715,-2.11699 -2.16754,-2.23761 -0.0232,-0.0556 -0.0422,-0.16399 -0.0422,-0.24089 0,-0.12226 0.0385,-0.21078 0.30648,-0.70438 0.16856,-0.3105 0.30648,-0.57373 0.30648,-0.58496 0,-0.0112 -0.18149,-0.1886 -0.40332,-0.39416 -0.22183,-0.20556 -0.88151,-0.860277 -1.46597,-1.454927 -0.69376,-0.70586 -1.09832,-1.09609 -1.1654,-1.12412 -0.15102,-0.0631 -0.35473,-0.0538 -0.51426,0.0234 -0.16545,0.0801 -2.01121,1.905977 -2.59536,2.567397 -1.16893,1.32358 -1.81702,2.16975 -3.10747,4.05724 -0.42256,0.61807 -0.79547,1.16317 -0.82867,1.21133 -0.0332,0.0482 -0.0412,0.073 -0.0177,0.0553 0.23721,-0.17978 1.81612,-1.31966 1.9837,-1.43211 0.57329,-0.38469 1.46552,-0.88161 2.20032,-1.22544 0.66415,-0.31077 1.28839,-0.55343 2.20974,-0.85899 0.97079,-0.32196 1.24738,-0.38034 1.53189,-0.32332 0.29964,0.0601 0.38579,0.13657 1.06336,0.94465 0.87269,1.04078 1.17514,1.37495 1.89676,2.09565 0.61163,0.61086 1.23286,1.17543 1.87991,1.70845 0.42854,0.35303 1.86618,1.44412 1.89197,1.43591 0.0113,-0.004 0.36941,-0.41797 0.79572,-0.92079 z m -1.20215,-1.21279 c 0.0517,-0.022 0.12136,-0.0713 0.15489,-0.10946 0.0335,-0.0382 0.34018,-0.55543 0.68146,-1.14942 0.96267,-1.67556 1.51928,-2.47464 2.33301,-3.3493 0.13062,-0.1404 0.2375,-0.26699 0.2375,-0.2813 0,-0.0143 -0.24856,-0.21212 -0.55236,-0.43957 -0.3038,-0.22745 -0.58703,-0.45901 -0.62942,-0.51458 -0.15005,-0.19673 -0.20211,-0.3571 -0.20305,-0.625447 -0.001,-0.35054 0.0533,-0.45294 0.60279,-1.13308 l 0.46416,-0.57446 -0.12452,-0.10217 c -0.0685,-0.0562 -0.55192,-0.46781 -1.07429,-0.91472 -0.52237,-0.4469 -1.00136,-0.83912 -1.06441,-0.8716 -0.17509,-0.0902 -0.4069,-0.10001 -0.60391,-0.0256 -0.13992,0.0528 -0.25563,0.14889 -0.78882,0.65477 -0.85813,0.81417 -1.32755,1.33163 -1.89713,2.09122 -0.50051,0.66747 -0.80425,1.167447 -1.64418,2.706487 -0.35791,0.65583 -0.39977,0.7471 -0.38319,0.8355 0.0153,0.0816 0.21686,0.29901 1.13446,1.22371 1.32322,1.33345 1.91322,1.85666 2.64825,2.34843 0.41859,0.28006 0.51731,0.31218 0.70876,0.23061 z m 0.47157,-3.87387 c -0.20303,-0.16196 -0.54181,-0.4491 -0.75285,-0.63808 -0.7347,-0.65793 -1.71179,-1.70982 -1.71179,-1.842827 0,-0.0579 0.0909,-0.14349 0.15233,-0.14349 0.0251,0 0.16799,0.14777 0.31762,0.328367 0.51106,0.61689 1.48892,1.54551 2.31028,2.19397 0.25712,0.203 0.30324,0.27865 0.22038,0.36151 -0.0767,0.0767 -0.17323,0.0299 -0.53597,-0.25945 z m 1.2248,-0.995 c -0.64088,-0.48094 -1.51007,-1.33494 -2.44564,-2.402897 -0.29214,-0.3335 -0.3419,-0.42231 -0.27902,-0.49808 0.0888,-0.10705 0.1833,-0.0418 0.55221,0.38132 0.81235,0.93178 1.7317,1.838037 2.29944,2.266697 0.22863,0.17262 0.27,0.21648 0.27,0.28625 0,0.0826 -0.043,0.11783 -0.14398,0.11783 -0.0284,0 -0.14225,-0.068 -0.25301,-0.15112 z m 3.00494,-1.40839 c 0.0875,-0.261007 0.0489,-0.541807 -0.10261,-0.746787 -0.0367,-0.0496 -0.28368,-0.24585 -0.54897,-0.43619 -0.26528,-0.19034 -0.5334,-0.3867 -0.59581,-0.43636 -0.0624,-0.0497 -0.12404,-0.0903 -0.13695,-0.0903 -0.0286,0 -0.85853,1.02222 -0.9335,1.14974 -0.14034,0.23869 -0.12696,0.55408 0.0329,0.774717 0.0481,0.0664 0.33031,0.30228 0.64734,0.54109 l 0.56208,0.42338 0.51365,-0.51772 c 0.43488,-0.43832 0.52105,-0.53979 0.56189,-0.66157 z m 5.28137,14.47859 c -0.3039,-0.099 -0.5943,-0.3579 -0.73281,-0.65343 -0.0702,-0.14972 -0.0782,-0.19995 -0.0776,-0.48798 5.9e-4,-0.29077 0.008,-0.33676 0.0816,-0.48722 0.12511,-0.25685 0.31083,-0.44333 0.56808,-0.57041 0.2127,-0.10507 0.23545,-0.10992 0.51581,-0.10985 0.26858,7e-5 0.30973,0.008 0.48827,0.0924 0.27139,0.12848 0.44037,0.29392 0.57168,0.55973 0.10521,0.21297 0.109,0.23141 0.10854,0.52857 -4.4e-4,0.28647 -0.007,0.32124 -0.0939,0.49977 -0.1144,0.23497 -0.34983,0.46656 -0.58419,0.57468 -0.13761,0.0635 -0.21795,0.0789 -0.4452,0.0856 -0.17722,0.005 -0.32169,-0.006 -0.4003,-0.0319 z m 0.62144,-0.26478 c 0.29315,-0.087 0.51941,-0.32463 0.61179,-0.64241 0.16267,-0.55957 -0.2824,-1.13654 -0.87672,-1.13654 -0.75647,0 -1.18451,0.8742 -0.71739,1.46515 0.24188,0.306 0.61125,0.424 0.98232,0.3138 z m -41.60579,-3.97848 c -5.47666,-0.88267 -5.52771,-0.8903 -5.69181,-0.85005 -0.24296,0.0596 -0.59773,0.0465 -0.79622,-0.0293 -0.23058,-0.0881 -0.42959,-0.22755 -0.53203,-0.37288 l -0.0877,-0.12448 -4.468251,-1.78609 c -2.45753,-0.98234 -4.47297,-1.78984 -4.47875,-1.79442 -0.006,-0.005 0.10485,-0.3126 0.24584,-0.68448 l 0.25636,-0.67613 -0.0678,-0.50037 c -0.0373,-0.2752 -0.0659,-0.5315 -0.0635,-0.56956 0.008,-0.12014 4.7904,-12.854827 4.87343,-12.975947 0.10717,-0.15633 0.29291,-0.25034 0.49461,-0.25034 0.12422,0 0.27106,0.042 0.67405,0.19266 1.98222,0.74124 4.255861,1.72948 5.496651,2.38913 1.08367,0.57613 1.52527,0.87161 2.3681,1.58456 l 0.54855,0.464 0.66279,-0.14053 c 1.7273,-0.36624 2.07803,-0.42152 2.91612,-0.45963 0.88431,-0.0402 1.82561,0.0278 2.63579,0.19056 1.04472,0.20982 4.24496,1.07171 4.36,1.17425 0.0301,0.0268 0.15396,0.21741 0.27534,0.42361 0.13056,0.22181 0.24532,0.38386 0.28102,0.39683 0.0332,0.0121 0.33616,0.0651 0.67329,0.11781 0.33713,0.0528 0.62716,0.10404 0.64451,0.11398 0.0339,0.0194 -5.62517,15.044857 -5.66948,15.052947 -0.0136,0.002 -2.51149,-0.39629 -5.55091,-0.88615 z m 4.74227,-0.33513 c -0.0376,-0.10034 -0.16976,-0.453 -0.29374,-0.7837 l -0.22543,-0.60127 -0.69112,-0.19348 c -1.05657,-0.29578 -1.89127,-0.47437 -2.88028,-0.61626 -1.14476,-0.16422 -2.04609,-0.21966 -3.58084,-0.22024 -0.98705,-3.7e-4 -1.13475,-0.006 -1.17485,-0.0463 -0.0538,-0.0538 -0.0567,-0.0837 -0.0157,-0.16037 0.0292,-0.0545 0.0742,-0.0565 1.27751,-0.0565 0.68601,0 1.45722,0.0135 1.71381,0.03 1.74657,0.11239 3.22763,0.36818 4.88696,0.84403 0.28003,0.0803 0.51337,0.14179 0.51852,0.13664 0.0353,-0.0353 4.87357,-12.997107 4.85772,-13.013907 -0.031,-0.0329 -1.80592,-0.52042 -2.89353,-0.7948 -1.76163,-0.44442 -2.12267,-0.49747 -3.3859,-0.49747 -1.17399,0 -1.31164,0.0185 -3.33456,0.44739 -0.36509,0.0774 -0.67199,0.14894 -0.68202,0.15896 -0.0161,0.0161 -4.87299,12.955637 -4.906,13.070367 -0.009,0.0307 0.13778,0.17467 0.44858,0.44062 l 0.46168,0.39506 4.96209,0.81831 c 2.72915,0.45007 4.97183,0.81988 4.98374,0.82179 0.0119,0.002 -0.009,-0.0786 -0.0467,-0.17894 z m -1.82562,-3.819 c -0.12567,-0.0503 -2.16562,-0.54765 -2.61522,-0.63766 -0.80465,-0.1611 -1.11213,-0.18898 -2.087,-0.18926 -0.9278,-2.6e-4 -1.23553,0.0253 -1.95151,0.16209 -0.28565,0.0546 -0.30539,0.055 -0.35756,0.008 -0.0739,-0.0669 -0.0697,-0.14714 0.0105,-0.198 0.0846,-0.0537 0.64293,-0.14987 1.21863,-0.20995 0.34899,-0.0364 0.64261,-0.044 1.28431,-0.0332 0.9114,0.0154 1.22233,0.0477 2.02862,0.21118 0.698,0.14147 2.57342,0.61372 2.65841,0.66941 0.0812,0.0532 0.0914,0.13692 0.0249,0.20345 -0.0515,0.0515 -0.11079,0.0554 -0.21401,0.0141 z m -6.21419,-2.28 c -0.0193,-0.0193 -0.035,-0.0708 -0.035,-0.11449 0,-0.0979 0.0554,-0.11875 0.5254,-0.19815 0.68981,-0.11654 0.93317,-0.13396 1.85348,-0.13274 0.94414,10e-4 1.21725,0.0239 1.96369,0.163 0.3648,0.068 0.4237,0.10931 0.35878,0.25181 -0.0382,0.0838 -0.0398,0.0838 -0.61492,-0.0175 -0.61696,-0.10861 -0.95954,-0.13487 -1.75133,-0.13423 -0.80257,6.4e-4 -1.24751,0.0387 -1.88267,0.16095 -0.34312,0.0661 -0.37125,0.0675 -0.4174,0.0213 z m 6.18218,-1.19455 c -0.90543,-0.2338 -1.33743,-0.32903 -1.83889,-0.40537 -1.10327,-0.16796 -2.35612,-0.14608 -3.45371,0.0603 -0.17375,0.0327 -0.34119,0.0514 -0.37209,0.0416 -0.0742,-0.0236 -0.10607,-0.15182 -0.0513,-0.20661 0.0476,-0.0476 0.45224,-0.13026 0.98739,-0.20176 0.48521,-0.0648 1.67663,-0.0898 2.20375,-0.0461 0.47226,0.0391 0.89923,0.0982 1.3135,0.18186 0.45215,0.0913 2.15554,0.52314 2.19645,0.55685 0.0464,0.0382 0.0472,0.1465 0.001,0.19221 -0.0572,0.0572 -0.17537,0.0365 -0.98658,-0.17295 z m 1.59079,-1.13727 c -0.89503,-0.26015 -1.96537,-0.52951 -2.46784,-0.62105 -0.69801,-0.12718 -0.98771,-0.1499 -1.91048,-0.14983 -0.9065,7e-5 -1.24941,0.0284 -1.93724,0.16029 -0.24727,0.0474 -0.28901,0.0488 -0.34678,0.0118 -0.0786,-0.0504 -0.0847,-0.13165 -0.0146,-0.19359 0.0291,-0.0257 0.20844,-0.0717 0.41594,-0.10684 0.66081,-0.1118 1.17802,-0.15326 1.91187,-0.15324 1.08727,3e-5 1.76055,0.0899 3.00535,0.40128 0.69325,0.17339 2.03573,0.55175 2.1225,0.59819 0.073,0.0391 0.0709,0.18999 -0.003,0.22969 -0.031,0.0166 -0.0606,0.0295 -0.0657,0.0286 -0.005,-9e-4 -0.32446,-0.0933 -0.70975,-0.20525 z m 0.71512,-1.635587 c -0.56222,-0.15694 -2.2635,-0.55054 -2.68876,-0.62205 -0.45465,-0.0765 -0.87886,-0.11976 -1.46536,-0.14956 -0.35768,-0.0182 -0.37557,-0.0221 -0.40598,-0.0888 -0.0258,-0.0565 -0.0217,-0.0809 0.0211,-0.1283 0.0627,-0.0693 0.21754,-0.0747 0.83199,-0.0291 0.81984,0.0609 1.14054,0.1164 2.46645,0.42662 1.04029,0.24339 1.67439,0.41033 1.72944,0.45532 0.0524,0.0428 0.0457,0.18805 -0.01,0.20928 -0.0756,0.029 -0.15696,0.0165 -0.47923,-0.0734 z m 0.65675,-1.59151 c -0.67757,-0.18879 -2.06992,-0.52573 -2.51023,-0.60745 -1.23472,-0.22916 -2.6044,-0.23447 -3.80043,-0.0147 -0.39047,0.0717 -0.43687,0.0715 -0.47632,-0.002 -0.047,-0.0879 -0.009,-0.16655 0.0969,-0.19986 0.12343,-0.0389 0.74185,-0.13841 1.14426,-0.18415 0.41743,-0.0474 1.80257,-0.0473 2.21835,2.1e-4 0.72923,0.0834 1.72202,0.2938 3.06482,0.64969 0.91787,0.24327 0.94559,0.25288 0.96623,0.33512 0.0244,0.0972 -0.0337,0.15962 -0.14522,0.15624 -0.0502,-0.002 -0.30145,-0.0613 -0.55831,-0.13288 z m 0.43783,-1.66504 c -0.51343,-0.15169 -1.79971,-0.4766 -2.21834,-0.56035 -1.30451,-0.26099 -2.7121,-0.27188 -3.9937,-0.0309 -0.33644,0.0633 -0.41491,0.0577 -0.44312,-0.0311 -0.0318,-0.10015 0.0337,-0.16771 0.19684,-0.20297 0.60783,-0.13138 1.38202,-0.20459 2.16757,-0.20496 0.78586,-3.7e-4 1.44072,0.0625 2.15997,0.20746 0.71226,0.14352 2.70138,0.66763 2.78023,0.73255 0.0464,0.0382 0.0472,0.14648 0.001,0.19219 -0.056,0.056 -0.18462,0.0358 -0.65091,-0.10191 z m 1.22716,6.516717 2.41764,-6.565417 -0.0902,-0.16259 c -0.0496,-0.0894 -0.18106,-0.31704 -0.29214,-0.50582 l -0.20194,-0.34323 -2.42385,6.466947 -2.42384,6.46696 0.22711,0.60429 c 0.12492,0.33236 0.24296,0.6437 0.26232,0.69186 l 0.0352,0.0876 0.036,-0.0876 c 0.0198,-0.0482 1.12396,-3.04201 2.45366,-6.653 z m -14.17956,4.76697 c 0.10027,-0.0821 0.18231,-0.15822 0.18231,-0.16911 0,-0.0239 -1.050711,-0.87772 -1.395901,-1.13429 -1.03696,-0.77075 -3.25697,-1.83189 -6.14437,-2.93695 -0.90101,-0.34483 -1.34557,-0.51048 -1.35244,-0.50396 -0.0213,0.0203 0.20716,1.55693 0.23442,1.57651 0.0545,0.0391 8.200441,3.31219 8.249771,3.31479 0.0241,0.001 0.12594,-0.0649 0.22621,-0.14699 z m 2.78399,-6.89979 c 1.29907,-3.467627 2.38088,-6.353257 2.40403,-6.412517 l 0.0421,-0.10774 -0.57555,-0.48539 c -0.31656,-0.26696 -0.72661,-0.58769 -0.91123,-0.71272 -0.88066,-0.59641 -2.17817,-1.25807 -3.98192,-2.03054 -1.346201,-0.57653 -3.276211,-1.32824 -3.410241,-1.32824 -0.0925,0 -0.2603,0.11337 -0.3041,0.20541 -0.11533,0.24241 -4.76592,12.708407 -4.74694,12.724247 0.0129,0.0107 0.30577,0.12246 0.65093,0.24833 1.8474,0.67368 4.12939,1.64993 5.36446,2.29494 1.03501,0.54054 1.50713,0.85094 2.385171,1.56818 l 0.64215,0.52454 0.0396,-0.0919 c 0.0218,-0.0505 1.10248,-2.92901 2.40154,-6.39664 z m -3.15016,4.04288 c -0.441981,-0.47373 -1.367631,-1.07403 -2.589311,-1.67922 -1.035,-0.51271 -2.368,-1.06849 -3.1928,-1.3312 -0.24191,-0.077 -0.32213,-0.15423 -0.26713,-0.257 0.0482,-0.0901 0.15335,-0.0768 0.58993,0.0743 0.92473,0.32008 1.91848,0.74 2.92837,1.23743 1.29792,0.63929 2.219301,1.23384 2.751051,1.77519 0.2108,0.21462 0.25212,0.30323 0.17659,0.37875 -0.0823,0.0823 -0.18084,0.0331 -0.3967,-0.19824 z m 0.46091,-1.74154 c -0.68734,-0.62333 -1.281681,-0.99872 -2.741481,-1.73154 -0.50123,-0.25162 -0.83067,-0.43388 -0.85019,-0.47037 -0.0246,-0.046 -0.0213,-0.0757 0.0146,-0.13058 0.0256,-0.0391 0.0637,-0.071 0.0846,-0.071 0.0579,0 1.98031,0.98864 2.29034,1.17785 0.628531,0.38359 1.061561,0.70434 1.453361,1.07651 0.19089,0.18133 0.21755,0.21911 0.2099,0.29747 -0.007,0.0765 -0.0217,0.0907 -0.0963,0.0964 -0.0732,0.006 -0.13291,-0.0344 -0.36486,-0.24478 z m 0.61597,-1.51447 c -0.54639,-0.49514 -1.0699,-0.87285 -1.705211,-1.23032 -0.16347,-0.092 -0.91457,-0.46669 -1.6691,-0.832677 -1.95548,-0.94854 -1.86653,-0.9021 -1.87762,-0.98031 -0.0114,-0.0804 0.0409,-0.15164 0.11127,-0.15164 0.0643,0 0.84933,0.36878 2.24797,1.05605 1.15308,0.566597 1.548931,0.782087 2.031521,1.105867 0.56621,0.37988 1.32519,1.0312 1.32519,1.13721 0,0.067 -0.0761,0.14527 -0.14073,0.14477 -0.0269,-2.2e-4 -0.17243,-0.11224 -0.32329,-0.24895 z m 0.46402,-1.63849 c -0.60576,-0.551537 -1.27531,-1.038097 -2.057811,-1.495387 -0.75093,-0.43884 -2.19761,-1.14486 -3.41509,-1.66667 -0.27292,-0.11697 -0.51263,-0.22549 -0.5327,-0.24115 -0.0464,-0.0362 -0.0472,-0.1449 -0.002,-0.19063 0.0193,-0.0193 0.063,-0.035 0.0972,-0.035 0.18802,0 2.94082,1.2974 3.8666,1.82234 0.852901,0.48361 1.606141,1.02506 2.240241,1.61034 0.27084,0.249987 0.31736,0.332017 0.23497,0.414407 -0.0731,0.073 -0.16076,0.0287 -0.43199,-0.21822 z m 0.98583,-2.103557 c -0.82975,-0.94864 -1.8708,-1.67477 -3.751471,-2.6166 -0.27244,-0.13644 -0.3,-0.16842 -0.25228,-0.29278 0.0376,-0.0979 0.19367,-0.0475 0.75815,0.24472 1.614711,0.83604 2.594301,1.52091 3.288671,2.29925 0.24079,0.26989 0.28409,0.38328 0.16976,0.44446 -0.0873,0.0467 -0.11025,0.0382 -0.21283,-0.079 z m -2.15338,-4.35939 c -0.779911,-0.43887 -2.056441,-1.05 -2.860411,-1.3694 -0.16851,-0.0669 -0.31608,-0.13696 -0.32793,-0.15557 -0.0447,-0.0702 -0.0224,-0.16646 0.0457,-0.19748 0.0566,-0.0258 0.12916,-0.007 0.43053,0.11389 0.80587,0.32218 2.221341,1.00565 2.960251,1.42936 0.30058,0.17236 0.35853,0.24463 0.27596,0.34412 -0.061,0.0735 -0.15002,0.0455 -0.52406,-0.16492 z m 47.6215,13.112357 c -0.28804,-0.0755 -0.52853,-0.2867 -0.62866,-0.55196 -0.1223,-0.32398 -0.0341,-0.7274 0.21011,-0.96061 0.26245,-0.25066 0.67218,-0.31586 1.00259,-0.15955 0.18753,0.0887 0.32417,0.22267 0.42974,0.42129 0.0945,0.1778 0.0943,0.56237 -3.4e-4,0.75452 -0.14413,0.29254 -0.42806,0.48583 -0.74491,0.50712 -0.0995,0.007 -0.22037,0.002 -0.26853,-0.0108 z m -76.211917,-0.59046 c -1.66329,-0.13613 -3.30926,-0.81754 -4.58743,-1.89913 -0.13106,-0.11091 -0.39536,-0.36414 -0.58733,-0.56274 -2.56314,-2.65168 -3.01229,-6.728597 -1.09009,-9.894657 0.59206,-0.97518 1.44189,-1.86646 2.37946,-2.49549 1.00048,-0.67126 2.14232,-1.11502 3.30678,-1.28514 0.95467,-0.13947 2.63679,-0.17043 3.36192,-0.0619 1.98901,0.29776 3.79485,1.32585 5.03838,2.86843 0.9082,1.1266 1.48549,2.45403 1.71119,3.93469 0.0763,0.5006 0.092,1.54236 0.0306,2.02862 -0.30558,2.420027 -1.56582,4.468787 -3.55063,5.772237 -0.62786,0.41232 -1.22221,0.68255 -2.23294,1.01523 -0.48965,0.16116 -1.01826,0.32557 -1.1747,0.36535 -0.81909,0.20832 -1.74709,0.28471 -2.60525,0.21448 z m 1.59079,-0.30693 c 1.11208,-0.12948 2.38931,-0.59897 3.32752,-1.22313 1.82825,-1.21629 3.04173,-3.09082 3.41367,-5.273297 0.32977,-1.93504 -0.11409,-3.98778 -1.22031,-5.64354 -0.3578,-0.53554 -0.68519,-0.92795 -1.11873,-1.34089 -1.17764,-1.12168 -2.65883,-1.83766 -4.32918,-2.09263 -0.53885,-0.0823 -1.48935,-0.0891 -2.02862,-0.0146 -1.45532,0.20106 -2.76152,0.75974 -3.9113,1.67291 -0.30554,0.24267 -0.88721,0.82087 -1.13912,1.13235 -0.47358,0.58554 -0.96257,1.43058 -1.23598,2.13594 -0.61151,1.57759 -0.69249,3.37463 -0.22523,4.998177 0.92511,3.21447 3.73193,5.47683 7.06622,5.69555 0.40846,0.0268 0.91358,0.01 1.40106,-0.0469 z m -1.57736,-1.07092 c -0.35445,-0.18743 -0.34417,-0.72178 0.0173,-0.89674 0.26411,-0.12785 0.56651,-0.0198 0.68697,0.24545 0.0688,0.15157 0.069,0.26394 6.7e-4,0.41203 -0.13244,0.28695 -0.42618,0.38666 -0.7049,0.23926 z m 3.28891,-0.58783 c -0.32422,-0.11752 -0.44645,-0.51846 -0.24041,-0.7886 0.10546,-0.13826 0.21666,-0.19095 0.40279,-0.19081 0.24628,1.7e-4 0.4249,0.13437 0.49125,0.36909 0.10948,0.38731 -0.27596,0.74722 -0.65363,0.61032 z m -6.32338,-0.446 c -0.33246,-0.12492 -0.43014,-0.60756 -0.1712,-0.84591 0.24771,-0.22801 0.63081,-0.17611 0.7967,0.10793 0.0875,0.14985 0.0817,0.39657 -0.0125,0.53412 -0.10003,0.14598 -0.25256,0.22545 -0.42723,0.22262 -0.0781,-0.001 -0.16167,-0.01 -0.18575,-0.0188 z m 8.73975,-1.72724 c -0.49498,-0.2248 -0.33301,-0.96761 0.21059,-0.96577 0.19759,6.7e-4 0.3574,0.0953 0.44115,0.26122 0.14388,0.28506 0.0456,0.57253 -0.24081,0.70474 -0.14781,0.0682 -0.26043,0.0682 -0.41093,-1.9e-4 z m -10.97269,-0.71557 c -0.4487,-0.19942 -0.36194,-0.87713 0.12405,-0.96897 0.21835,-0.0413 0.46484,0.0932 0.55164,0.30095 0.17726,0.42425 -0.25737,0.85395 -0.67569,0.66802 z m 7.85178,-1.770337 c -1.13982,-0.75681 -2.07674,-1.3801 -2.08203,-1.38509 -0.0184,-0.0173 -0.88063,-3.70345 -0.88063,-3.76467 0,-0.0338 0.0158,-0.0773 0.035,-0.0966 0.0457,-0.0457 0.15419,-0.0449 0.1916,0.002 0.0162,0.0201 0.2227,0.85742 0.45889,1.86079 0.23619,1.00336 0.43142,1.82612 0.43384,1.82834 0.002,0.002 0.92797,0.61629 2.05677,1.3646 l 2.05236,1.360567 -0.009,0.0948 c -0.008,0.0816 -0.0214,0.096 -0.0967,0.10328 -0.0732,0.007 -0.42759,-0.21732 -2.15997,-1.367567 z m 4.11569,-0.56788 c -0.20048,-0.10834 -0.27736,-0.234 -0.27736,-0.45332 0,-0.28913 0.17965,-0.49048 0.46044,-0.51604 0.50374,-0.0459 0.73505,0.62923 0.32075,0.93614 -0.10786,0.0799 -0.3838,0.0981 -0.50383,0.0332 z m -12.4808,-0.91612 c -0.22058,-0.0712 -0.34774,-0.25623 -0.34774,-0.50595 0,-0.18476 0.0717,-0.31508 0.2342,-0.42544 0.0861,-0.0585 0.12911,-0.0672 0.28359,-0.0577 0.2019,0.0124 0.29988,0.0668 0.40895,0.22711 0.13872,0.20381 0.0574,0.57063 -0.15563,0.7023 -0.10648,0.0658 -0.31387,0.095 -0.42337,0.0597 z m 11.90148,-2.2929 c -0.38467,-0.13715 -0.46127,-0.65977 -0.13115,-0.89483 0.14131,-0.10062 0.39188,-0.11111 0.54872,-0.023 0.38909,0.21868 0.31954,0.81081 -0.10922,0.92989 -0.13763,0.0382 -0.17086,0.0369 -0.30835,-0.0121 z m -11.00022,-0.80528 c -0.21347,-0.11273 -0.31479,-0.41577 -0.21715,-0.64946 0.0534,-0.12781 0.22859,-0.27608 0.35399,-0.2996 0.49755,-0.0933 0.81691,0.48592 0.47355,0.85894 -0.14147,0.15369 -0.41386,0.1939 -0.61039,0.0901 z m 8.8578,-1.6658 c -0.21694,-0.0626 -0.38582,-0.34703 -0.34308,-0.57771 0.0501,-0.27056 0.25701,-0.4261 0.53954,-0.40566 0.19782,0.0143 0.32661,0.0955 0.40968,0.25837 0.14875,0.29157 -0.002,0.64024 -0.31534,0.72714 -0.12645,0.0351 -0.16273,0.0348 -0.2908,-0.002 z m -6.38523,-0.48732 c -0.30399,-0.19468 -0.35954,-0.57121 -0.11967,-0.81108 0.30276,-0.30276 0.82188,-0.11041 0.85738,0.31769 0.0157,0.18936 -0.0593,0.36017 -0.20311,0.46257 -0.13124,0.0934 -0.41156,0.10961 -0.5346,0.0308 z m 3.23766,-0.61541 c -0.49343,-0.2241 -0.32778,-0.96625 0.21568,-0.96625 0.44976,0 0.66866,0.57147 0.3375,0.8811 -0.1596,0.14923 -0.34818,0.17826 -0.55318,0.0851 z m -19.73756,8.045777 c -0.0165,-0.0201 -0.0393,-0.266337 -0.0508,-0.547287 -0.0202,-0.49687 -0.0191,-0.51232 0.0411,-0.56651 0.05,-0.045 0.075,-0.0497 0.13031,-0.0245 0.0588,0.0268 0.071,0.0592 0.0872,0.23084 0.0322,0.34097 0.023,0.870197 -0.0157,0.908977 -0.0457,0.0457 -0.15405,0.0449 -0.19213,-0.002 z m -2.09476,-2.077737 c -0.0345,-0.0527 -0.0388,-0.0854 -0.0166,-0.12688 0.0248,-0.0464 0.0756,-0.0591 0.29845,-0.0749 0.50885,-0.0361 0.77035,-0.0252 0.82424,0.0343 0.0662,0.0732 0.0606,0.13905 -0.0166,0.19307 -0.0525,0.0367 -0.15854,0.0454 -0.55392,0.0454 -0.48584,0 -0.48934,-4.6e-4 -0.53557,-0.071 z m 3.17423,0.007 c -0.0472,-0.0472 -0.0443,-0.15442 0.005,-0.19558 0.0279,-0.0231 0.20572,-0.031 0.57647,-0.0255 l 0.5362,0.008 0.009,0.082 c 0.018,0.15735 -0.0122,0.16607 -0.57633,0.16607 -0.3624,0 -0.52641,-0.0104 -0.55101,-0.035 z m -1.15671,-1.1492 c -0.0383,-0.0383 -0.0459,-0.13204 -0.0459,-0.56561 0,-0.5661 0.0124,-0.61047 0.15971,-0.57349 0.0929,0.0233 0.0971,0.0467 0.11219,0.62477 0.0101,0.38788 0.005,0.48381 -0.0297,0.51811 -0.0551,0.0551 -0.13909,0.0535 -0.19637,-0.004 z"
       id="path1" /></g></svg>
