<?xml version="1.0" encoding="UTF-8" standalone="no"?>
<!-- Created with Inkscape (http://www.inkscape.org/) -->

<svg
   width="210mm"
   height="297mm"
   viewBox="0 0 210 297"
   version="1.1"
   id="svg1"
   xml:space="preserve"
   xmlns="http://www.w3.org/2000/svg"
   xmlns:svg="http://www.w3.org/2000/svg"><defs
     id="defs1" /><g
     id="layer1"><path
       style="fill:#666666;fill-opacity:0.71372551"
       d="m 60.897028,215.99584 c -0.2938,-0.18612 -0.32562,-0.93386 -0.16869,-3.9647 l 0.1934,-3.73531 h 1.59372 1.59371 l -0.16826,1.22755 c -0.0925,0.67516 -0.16825,2.4611 -0.16825,3.96875 v 2.7412 l -1.25677,-0.004 c -0.69122,-0.002 -1.41971,-0.10728 -1.61886,-0.23344 z m 60.462712,-3.90471 c -0.0949,-1.55061 -0.1725,-5.40074 -0.1725,-8.55586 v -5.73657 l 11.55279,-0.17539 c 6.35403,-0.0965 15.74214,-0.1754 20.86246,-0.1754 h 9.30967 l 0.17192,2.4219 c 0.0945,1.33204 0.17191,5.26111 0.17191,8.73125 v 6.30935 h -20.86188 -20.86187 z m -72.205312,-0.76998 c -0.69122,-0.35982 -1.25677,-0.71316 -1.25677,-0.78521 0,-0.0721 0.7775,-1.68259 1.72778,-3.57897 l 1.72778,-3.44797 1.31493,0.71567 c 0.72321,0.39362 1.31493,0.82195 1.31493,0.95184 0,0.21735 -3.43035,6.83905 -3.5285,6.81117 -0.0239,-0.007 -0.60892,-0.30672 -1.30015,-0.66653 z m 22.9545,-2.75696 c -0.94693,-1.88969 -1.72169,-3.47668 -1.72169,-3.52665 0,-0.15929 2.64034,-1.33403 2.73836,-1.21835 0.0517,0.0611 0.89176,1.6239 1.86672,3.47297 l 1.77265,3.36196 -1.32799,0.67294 C 74.706588,211.69717 74.046358,212 73.969808,212 c -0.0766,0 -0.91396,-1.54612 -1.86088,-3.43581 z m -19.84973,-34.85456 c -8.37719,-18.72011 -11.09027,-25.0309 -11.07134,-25.75265 0.0138,-0.52582 0.23763,-1.28045 0.49743,-1.67695 0.53048,-0.80961 2.46655,-1.90991 2.76566,-1.57177 0.10698,0.12093 1.22945,3.49409 2.49438,7.49591 2.82454,8.93586 2.67827,8.56568 3.75959,9.51508 1.82404,1.60154 4.45285,1.57149 6.91834,-0.0791 0.95025,-0.63616 1.46763,-1.26443 2.15582,-2.61789 1.3729,-2.70008 1.3948,-4.49929 0.1494,-12.27284 -0.89259,-5.5714 -0.95651,-6.27682 -0.58747,-6.48334 1.10032,-0.61578 3.13872,-2.43697 3.87476,-3.46189 0.7983,-1.11162 1.20485,-1.31547 14.3138,-7.1773 9.203732,-4.11556 13.720222,-6.00652 14.209692,-5.94931 0.65423,0.0765 0.90196,0.49241 2.8075,4.71407 1.14947,2.54661 3.07855,6.94034 4.28684,9.76384 1.20829,2.82349 2.38241,5.35031 2.60917,5.61514 0.60408,0.70551 1.72628,0.91053 2.52623,0.46152 0.38747,-0.21747 0.99928,-1.05658 1.42827,-1.95891 1.4346,-3.01745 3.92718,-4.84399 6.94038,-5.08586 4.11149,-0.33003 7.5466,2.08701 8.72449,6.1388 0.76301,2.62469 0.13534,5.04782 -1.88756,7.28693 -1.64603,1.82196 -2.84466,2.20976 -7.33676,2.37372 -3.72358,0.13591 -3.95396,0.17582 -4.43289,0.76798 -0.27786,0.34355 -0.50519,0.97263 -0.50519,1.39797 0,0.42534 1.78594,4.77361 3.96875,9.66281 2.18281,4.88921 3.96875,9.21252 3.96875,9.60738 0,0.39485 -0.21805,0.91524 -0.48455,1.15642 -0.38409,0.3476 -11.41958,5.4379 -15.62315,7.20644 l -0.89417,0.3762 0.17632,-1.55844 c 0.2229,-1.9702 -0.35468,-4.86443 -1.32745,-6.65172 -0.94584,-1.73783 -3.4471,-4.09232 -5.18822,-4.88379 -7.70756,-3.50369 -16.302652,2.00092 -16.339812,10.46461 -0.0137,3.12648 1.22594,5.67398 4.1076,8.44109 0.95112,0.91333 1.683622,1.70629 1.62776,1.76215 -0.15196,0.15196 -17.18629,7.7703 -17.37411,7.7703 -0.089,0 -5.15524,-11.15848 -11.25826,-24.79662 z m 72.103042,16.46224 v -4.10104 h 17.59479 17.59479 v 3.93568 3.93568 l -0.82682,0.16536 c -0.45476,0.0909 -8.37241,0.16536 -17.59479,0.16536 h -16.76797 z m 1.33315,-8.26823 c -0.99408,-1.19985 -2.01202,-3.28169 -2.37547,-4.85822 -0.54351,-2.3576 -1.39131,-1.80986 10.53849,-6.80862 5.9505,-2.49335 11.02116,-4.6109 11.26813,-4.70568 0.36813,-0.14126 0.32396,0.0745 -0.24508,1.19747 l -0.69412,1.36979 1.00151,0.41603 c 0.55083,0.22881 1.20345,0.5229 1.45027,0.65352 0.37482,0.19838 0.63503,-0.12238 1.57942,-1.94698 1.33347,-2.57632 3.16591,-4.51802 5.31338,-5.63022 0.8364,-0.43318 1.52101,-0.91595 1.52135,-1.07282 3.5e-4,-0.15687 -0.53808,-3.60969 -1.19651,-7.67292 -1.26764,-7.82274 -1.2885,-8.50213 -0.33038,-10.75917 0.81226,-1.91346 3.022,-2.9548 4.21506,-1.98634 0.22409,0.18191 1.62734,4.20026 3.11834,8.92969 1.491,4.72943 3.01179,9.55146 3.37953,10.71563 l 0.66862,2.11666 -2.15514,8.06979 c -2.41491,9.04248 -2.30931,8.73001 -3.77799,11.17864 l -1.07119,1.78594 h -15.69309 -15.69309 z m -11.18972,-16.67128 c -2.00137,-4.47337 -3.63847,-8.20709 -3.63802,-8.29715 4.6e-4,-0.0901 1.23136,-0.21849 2.73533,-0.28537 2.36249,-0.10508 2.9753,-0.23431 4.5046,-0.94996 4.2461,-1.98698 6.76293,-6.54611 6.46403,-11.7093 -0.22973,-3.9686 -2.71756,-7.57353 -6.52565,-9.45582 -1.89769,-0.93801 -2.11371,-0.98371 -4.64995,-0.98371 -3.14897,0 -4.68638,0.44955 -6.85971,2.00583 -0.80942,0.57962 -1.93652,1.703 -2.50468,2.49642 l -1.033,1.44257 -3.50458,-7.8672 c -1.92752,-4.32697 -3.73351,-8.26916 -4.01331,-8.76045 -0.27981,-0.49128 -0.47414,-0.91463 -0.43184,-0.94077 0.0423,-0.0261 4.72013,-1.94591 10.3952,-4.26614 5.67508,-2.32023 10.5864,-4.48107 10.91407,-4.80188 0.69084,-0.6764 0.77587,-1.81994 0.19678,-2.64669 -0.21943,-0.31328 -1.03739,-0.86188 -1.81769,-1.21912 -1.93742,-0.88698 -3.4463,-2.3203 -4.3239,-4.10739 -0.62185,-1.26628 -0.73416,-1.82472 -0.72688,-3.61435 0.008,-1.891692 0.10377,-2.293872 0.904,-3.783912 1.55487,-2.89516 4.04936,-4.39219 7.33059,-4.39935 1.64314,-0.004 2.13107,0.11722 3.69421,0.91457 2.08936,1.06578 3.58387,2.80233 4.06866,4.72761 0.1673,0.66442 0.27455,2.579532 0.23833,4.255812 -0.0362,1.67627 0.0231,3.31697 0.13185,3.64599 0.2025,0.61269 1.39441,1.38616 2.13608,1.38616 0.22805,0 4.83575,-1.84744 10.23932,-4.10542 5.40357,-2.25798 9.84563,-4.073682 9.87126,-4.034902 0.0256,0.0388 4.65119,11.099442 10.27903,24.579232 7.15314,17.13319 10.23244,24.80079 10.23244,25.47929 0,1.39239 -0.64405,2.44466 -1.88318,3.07682 -0.59319,0.30262 -1.14491,0.48383 -1.22605,0.40269 -0.0811,-0.0811 -1.18532,-3.36109 -2.45373,-7.28878 -1.26841,-3.9277 -2.494,-7.42788 -2.72353,-7.77819 -0.58573,-0.89394 -2.50481,-1.75624 -3.90174,-1.75316 -1.46426,0.003 -3.53849,0.95873 -4.66257,2.14783 -2.39922,2.53802 -2.68089,5.60368 -1.29304,14.07307 0.52026,3.17485 0.94592,5.8785 0.94592,6.00812 0,0.51173 -2.83775,1.79558 -17.78764,8.04741 -8.54627,3.57394 -15.57096,6.49692 -15.61041,6.49553 -0.0395,-0.001 -1.70922,-3.66256 -3.7106,-8.13594 z m -61.512662,-5.80682 c -0.38125,-0.33019 -1.49348,-3.4115 -3.65718,-10.13179 -1.71013,-5.31151 -3.22281,-10.19307 -3.36153,-10.84791 -0.22871,-1.07972 -0.0495,-1.94235 1.92326,-9.26042 2.04838,-7.5984 2.87193,-9.88082 4.17497,-11.57073 l 0.45534,-0.59052 15.84073,-0.017 c 18.181212,-0.0195 16.247742,-0.32926 17.821822,2.85568 0.80077,1.62024 0.90053,1.99365 0.5848,2.18878 -0.20938,0.12941 -5.888882,2.69811 -12.621112,5.70823 -12.16075,5.43733 -12.24623,5.48102 -13.13101,6.71258 -1.09918,1.52998 -2.86384,3.00056 -4.43409,3.69515 l -1.18836,0.52568 1.15442,6.95386 c 1.28717,7.75356 1.38028,10.14624 0.46556,11.96388 -0.91292,1.81406 -2.96216,2.73726 -4.02762,1.81448 z m -1.92035,-49.75661 v -4.22487 l 17.35433,-0.19666 c 10.70439,-0.1213 17.449202,-0.10178 17.601922,0.0509 0.13895,0.13895 0.21545,2.03837 0.17432,4.32828 l -0.0733,4.08067 -17.528642,0.0933 -17.52865,0.0932 z m -3.5293,-9.851292 c -0.0962,-1.35493 -0.17487,-5.48131 -0.17487,-9.16974 v -6.706226 h 20.86287 20.862872 l 0.16992,2.182812 c 0.0935,1.200547 0.17063,5.248674 0.17151,8.995834 l 0.002,6.813022 H 76.119248 c -7.32513,0 -16.71191,0.0783 -20.85951,0.1739 l -7.5411,0.1739 z m 91.167622,-9.925534 c -0.90681,-1.820491 -1.64874,-3.366297 -1.64874,-3.435126 0,-0.06883 0.58839,-0.423303 1.30754,-0.787722 l 1.30754,-0.66258 1.73516,3.360493 c 0.95435,1.848269 1.73517,3.430389 1.73517,3.515819 0,0.16655 -2.26443,1.3191 -2.59166,1.3191 -0.10795,0 -0.9382,-1.48949 -1.84501,-3.309984 z m 22.03146,2.735914 c -0.58208,-0.30287 -1.09529,-0.58261 -1.14046,-0.62165 -0.11705,-0.10114 3.36436,-7.006363 3.5324,-7.006363 0.0766,0 0.73344,0.301124 1.45973,0.669165 l 1.32053,0.669165 -1.79235,3.426792 c -0.98579,1.884731 -1.91141,3.423821 -2.05693,3.420181 -0.14552,-0.004 -0.74083,-0.25441 -1.32292,-0.55729 z m -10.9802,-7.892596 v -3.968749 h 1.5875 1.5875 v 3.968749 3.96875 h -1.5875 -1.5875 z"
       id="path1" /></g></svg>
