<?xml version="1.0" encoding="UTF-8" standalone="no"?>
<!-- Created with Inkscape (http://www.inkscape.org/) -->

<svg
   width="210mm"
   height="297mm"
   viewBox="0 0 210 297"
   version="1.1"
   id="svg1"
   xml:space="preserve"
   xmlns="http://www.w3.org/2000/svg"
   xmlns:svg="http://www.w3.org/2000/svg"><defs
     id="defs1" /><g
     id="layer1"><path
       style="fill:#666666;fill-opacity:0.71372551"
       d="m 35.093756,220.10926 c -0.84625,-0.41889 -1.35061,-0.92849 -1.76389,-1.78222 -0.54903,-1.13413 -0.57853,-1.68786 -0.57388,-10.77259 0.006,-10.82097 0.16746,-12.17285 1.87308,-15.63853 1.42904,-2.90369 4.53792,-6.01257 7.44161,-7.44161 2.91967,-1.43691 5.24693,-1.86151 10.43597,-1.904 3.29912,-0.027 4.06976,-0.0957 3.13501,-0.27923 -6.41042,-1.25894 -11.0257,-7.85842 -9.96639,-14.25114 0.91742,-5.53649 5.08293,-9.702 10.61942,-10.61943 6.69856,-1.10999 13.185,3.69612 14.33222,10.61943 1.05931,6.39272 -3.55597,12.9922 -9.96639,14.25114 -0.93475,0.18357 -0.1641,0.25221 3.13501,0.27923 5.18904,0.0425 7.5163,0.46709 10.43597,1.904 2.90369,1.42904 6.01257,4.53792 7.44161,7.44161 1.70562,3.46568 1.86754,4.81756 1.87308,15.63853 0.005,9.0988 -0.0241,9.63697 -0.57651,10.77803 -0.42212,0.87199 -0.91045,1.36032 -1.78244,1.78244 -1.18102,0.57172 -1.56506,0.58141 -23.0547,0.58119 -21.56062,-2.2e-4 -21.86956,-0.008 -23.03878,-0.58685 z m 93.697774,0 c -0.84625,-0.41889 -1.35061,-0.92849 -1.76389,-1.78222 -0.54903,-1.13413 -0.57852,-1.68786 -0.57388,-10.77259 0.005,-10.82097 0.16746,-12.17285 1.87308,-15.63853 1.42905,-2.90369 4.53792,-6.01257 7.44161,-7.44161 2.91968,-1.43691 5.24693,-1.86151 10.43597,-1.904 3.29912,-0.027 4.06977,-0.0957 3.13502,-0.27923 -6.41043,-1.25894 -11.02571,-7.85842 -9.9664,-14.25114 1.14723,-6.92331 7.63366,-11.72942 14.33222,-10.61943 5.53649,0.91743 9.702,5.08294 10.61943,10.61943 1.05931,6.39272 -3.55597,12.9922 -9.9664,14.25114 -0.93475,0.18357 -0.1641,0.25221 3.13502,0.27923 5.18903,0.0425 7.51629,0.46709 10.43596,1.904 2.90369,1.42904 6.01257,4.53792 7.44161,7.44161 1.70563,3.46568 1.86754,4.81756 1.87308,15.63853 0.005,9.0988 -0.0241,9.63697 -0.57651,10.77803 -0.42212,0.87199 -0.91045,1.36032 -1.78243,1.78244 -1.18103,0.57172 -1.56507,0.58141 -23.05471,0.58119 -21.56062,-2.2e-4 -21.86956,-0.008 -23.03878,-0.58685 z M 69.439976,160.42371 c -0.54328,-0.22684 -1.30528,-0.8774 -1.69333,-1.44569 -0.70117,-1.02684 -0.70608,-1.07826 -0.78919,-8.27191 l -0.0836,-7.23866 -1.446,-0.3706 c -0.7953,-0.20383 -2.59917,-0.94684 -4.00859,-1.65113 -2.09884,-1.0488 -3.02659,-1.7441 -5.12663,-3.84218 -2.16228,-2.16025 -2.77029,-2.98176 -3.88026,-5.24276 -2.36704,-4.82165 -2.30458,-4.2174 -2.30458,-22.29555 0,-12.376131 0.0847,-16.293021 0.37856,-17.497781 0.20821,-0.85372 1.01725,-2.880659 1.79787,-4.504303 1.24967,-2.599263 1.72858,-3.261363 4.00713,-5.539913 2.27855,-2.278551 2.94065,-2.757461 5.53991,-4.007133 1.62365,-0.780614 3.65058,-1.589653 4.5043,-1.797863 2.26527,-0.552466 41.196964,-0.552466 43.462224,0 0.85373,0.20821 2.88066,1.017249 4.50431,1.797863 2.59926,1.249672 3.26136,1.728582 5.53991,4.007133 2.27855,2.27855 2.75746,2.94065 4.00713,5.539913 0.78062,1.623644 1.58966,3.650583 1.79787,4.504303 0.29382,1.20476 0.37856,5.12165 0.37856,17.497781 0,12.37613 -0.0847,16.29302 -0.37856,17.49777 -0.20821,0.85373 -1.01725,2.88066 -1.79787,4.50431 -1.24877,2.59738 -1.72887,3.2615 -3.99588,5.52738 -2.16193,2.16085 -3.00805,2.78878 -5.25769,3.90185 -4.46503,2.20919 -4.57027,2.22546 -15.240004,2.3557 l -9.45444,0.1154 -8.04333,8.01182 c -9.23878,9.20257 -9.75723,9.55513 -12.41778,8.44425 z m 16.20122,-42.32146 c 0.49797,-0.23631 4.9834,-4.52256 9.96761,-9.525 9.759004,-9.794701 9.727634,-9.753381 9.267904,-12.203961 -0.2426,-1.29315 -1.82498,-2.87553 -3.11813,-3.11812 -2.404604,-0.45111 -2.554184,-0.34333 -10.510314,7.573521 l -7.40171,7.36516 -3.20893,-3.13563 c -3.42218,-3.34401 -4.15144,-3.7325 -6.26292,-3.33639 -1.29315,0.2426 -2.87553,1.82498 -3.11813,3.11812 -0.42759,2.27929 -0.13055,2.75007 5.01637,7.95043 2.64466,2.67213 5.2054,5.05422 5.69053,5.29354 1.12868,0.55679 2.5283,0.56376 3.67772,0.0183 z m 51.391004,42.20251 c -0.66429,-0.32954 -3.84856,-3.28234 -7.73711,-7.17468 l -6.60822,-6.61466 2.32629,-2.18841 c 3.75537,-3.53278 6.06989,-6.95571 7.78481,-11.5129 1.61812,-4.29997 1.63028,-4.44528 1.76173,-21.05555 0.14384,-18.175361 -0.01,-19.981641 -2.15201,-25.339893 -0.32813,-0.820663 -0.5966,-1.565965 -0.5966,-1.656228 0,-0.09026 2.44475,-0.09866 5.43277,-0.01867 6.20955,0.166239 7.21996,0.378512 11.21834,2.356816 2.24963,1.113067 3.09576,1.740996 5.25769,3.901854 2.267,2.26587 2.74711,2.92999 3.99588,5.52738 2.18643,4.547671 2.17643,4.466021 2.17643,17.768741 0,13.32629 -0.007,13.38238 -2.30459,18.06222 -1.10997,2.261 -1.71798,3.08251 -3.88026,5.24276 -2.10004,2.09808 -3.02778,2.79338 -5.12663,3.84218 -1.40942,0.70429 -3.21328,1.4473 -4.00859,1.65113 l -1.446,0.3706 -0.0836,7.23866 c -0.0831,7.19374 -0.088,7.24506 -0.78919,8.27164 -0.71023,1.03984 -2.26594,1.88768 -3.46293,1.88725 -0.34611,-1.2e-4 -1.13729,-0.25223 -1.75818,-0.56024 z"
       id="path1" /></g></svg>
