<?xml version="1.0" encoding="UTF-8" standalone="no"?>
<!-- Created with Inkscape (http://www.inkscape.org/) -->

<svg
   width="210mm"
   height="297mm"
   viewBox="0 0 210 297"
   version="1.1"
   id="svg1"
   xml:space="preserve"
   xmlns="http://www.w3.org/2000/svg"
   xmlns:svg="http://www.w3.org/2000/svg"><defs
     id="defs1" /><g
     id="layer1"><path
       style="fill:#666666;fill-opacity:0.71521741"
       d="m 65.42269,233.49542 5.106151,-5.11527 h 49.407529 c 42.6188,0 49.68465,-0.0722 51.42436,-0.52532 10.90686,-2.84088 16.38972,-14.62084 11.49556,-24.6983 -1.9533,-4.022 -5.39585,-7.11002 -9.7733,-8.76677 -1.96559,-0.74393 -2.49554,-0.76187 -28.10891,-0.95169 -25.703,-0.19049 -26.14543,-0.20558 -28.69094,-0.97907 -16.06182,-4.88056 -24.404837,-21.34455 -18.629533,-36.76327 2.720303,-7.26258 8.777593,-13.35853 15.969323,-16.07126 4.28081,-1.61472 6.84288,-1.90821 16.65812,-1.90821 h 9.05741 l 5.28284,5.29166 5.28284,5.29167 H 135.903 c -8.82939,0 -14.69168,0.14356 -15.87059,0.38866 -3.04144,0.63232 -6.24428,2.39818 -8.57247,4.72637 -9.53134,9.53134 -5.01511,25.49347 8.18582,28.93187 1.69077,0.44039 5.90665,0.52532 26.07696,0.52532 19.34929,0 24.57409,0.0983 26.68515,0.50225 13.87402,2.65454 23.46324,14.88457 22.70254,28.9547 -0.66017,12.2106 -8.73467,22.34038 -20.37997,25.56746 -2.53905,0.70361 -3.42935,0.71448 -58.4961,0.71448 H 60.316538 Z M 36.273829,220.53084 c -7.381681,-7.42156 -14.164151,-14.5492 -15.072151,-15.83919 -2.23845,-3.18014 -4.57831,-8.27741 -5.56286,-12.11845 -0.6783,-2.64629 -0.81108,-4.05619 -0.79736,-8.46667 0.0142,-4.55062 0.14482,-5.77126 0.93309,-8.7164 6.49322,-24.26005 35.364787,-34.28978 55.362556,-19.23248 15.20298,11.44706 18.461706,32.79809 7.415556,48.58638 -1.39035,1.98724 -28.097958,29.28056 -28.652193,29.28056 -0.112971,0 -6.244958,-6.07219 -13.626638,-13.49375 z m 16.105389,-32.37211 c 3.7093,-1.89234 3.622351,-7.51318 -0.143868,-9.30037 -4.621635,-2.19311 -9.276449,2.57138 -6.955981,7.11987 1.344,2.63446 4.381458,3.56732 7.099849,2.1805 z M 146.3405,129.86695 c -7.38168,-7.42156 -14.16415,-14.5492 -15.07216,-15.83919 -2.23845,-3.18013 -4.5783,-8.27741 -5.56285,-12.11845 -0.67831,-2.646275 -0.81109,-4.056175 -0.79737,-8.466655 0.0142,-4.55062 0.14483,-5.77127 0.9331,-8.71641 6.49322,-24.260037 35.36478,-34.289774 55.36255,-19.232476 15.20298,11.44707 18.46171,32.798096 7.41556,48.586381 -1.39035,1.98723 -28.09796,29.28055 -28.6522,29.28055 -0.11297,0 -6.24495,-6.07219 -13.62663,-13.49375 z m 16.10538,-32.372095 c 3.7093,-1.89235 3.62235,-7.51319 -0.14386,-9.30037 -4.62164,-2.19311 -9.27645,2.57137 -6.95598,7.11987 1.344,2.63446 4.38145,3.56732 7.09984,2.1805 z"
       id="path1" /></g></svg>
