<?xml version="1.0" encoding="UTF-8" standalone="no"?>
<!-- Created with Inkscape (http://www.inkscape.org/) -->

<svg
   width="210mm"
   height="297mm"
   viewBox="0 0 210 297"
   version="1.1"
   id="svg1"
   xml:space="preserve"
   xmlns="http://www.w3.org/2000/svg"
   xmlns:svg="http://www.w3.org/2000/svg"><defs
     id="defs1" /><g
     id="layer1"><path
       style="fill:#3b308c;fill-opacity:1"
       d="m 85.532059,165.25187 c -0.54337,-0.6547 0.33066,-18.77342 1.4792,-30.66402 0.096,-0.99401 0.32562,-1.95834 0.51024,-2.14296 0.3462,-0.3462 12.446581,-1.06964 17.972371,-1.07451 l 2.64583,-0.002 -0.0623,3.42629 c -0.0439,2.41502 -0.16542,3.52941 -0.41165,3.77564 -0.21604,0.21604 -2.76682,0.6552 -6.68443,1.15086 -3.48429,0.44083 -6.410841,0.88491 -6.503431,0.98686 -0.0926,0.10194 -0.25129,1.40935 -0.35265,2.90534 l -0.18429,2.71998 2.072291,-0.16993 c 1.13976,-0.0935 3.67964,-0.18636 5.64417,-0.20644 l 3.57187,-0.0365 0.0744,3.41811 c 0.0409,1.87996 -0.0257,3.51819 -0.14799,3.64049 -0.12231,0.12231 -1.81489,0.40753 -3.7613,0.63381 -1.9464,0.2263 -4.43965,0.61664 -5.54055,0.86744 l -2.001631,0.456 -0.13229,5.14936 -0.13229,5.14937 -1.19063,0.17882 c -2.32108,0.34862 -6.52357,0.24965 -6.86493,-0.16167 z m 8.18785,-13.74717 c 0,-0.25099 -0.792,-0.37748 -0.93319,-0.14904 -0.086,0.13916 0.0888,0.25302 0.38841,0.25302 0.29963,0 0.54478,-0.0468 0.54478,-0.10398 z m 8.641891,-0.75591 c -0.0734,-0.1819 -0.13345,-0.0331 -0.13345,0.33073 0,0.36379 0.0601,0.51263 0.13345,0.33072 0.0734,-0.1819 0.0734,-0.47956 0,-0.66145 z m -11.435271,-3.61335 c 0.0816,-0.13194 -0.09,-0.17759 -0.38126,-0.10143 -0.6178,0.16156 -0.69589,0.34134 -0.14827,0.34134 0.20969,0 0.44798,-0.10796 0.52953,-0.23991 z m 0.86964,-2.30119 c -0.0879,-0.0879 -0.31613,-0.0973 -0.50712,-0.0209 -0.21107,0.0845 -0.14837,0.14716 0.15985,0.15986 0.27892,0.0115 0.43519,-0.0511 0.34727,-0.13897 z m 2.38125,-11.90625 c -0.0879,-0.0879 -0.31613,-0.0973 -0.50712,-0.0209 -0.21107,0.0845 -0.14837,0.14716 0.15985,0.15985 0.27892,0.0115 0.43519,-0.051 0.34727,-0.13896 z"
       id="path1" /><path
       style="fill:#7faef2;fill-opacity:1"
       d="m 108.33419,151.80712 c -0.18513,-0.22914 -0.0392,-1.21157 0.47519,-3.19863 0.40831,-1.57735 0.82279,-3.45258 0.92107,-4.16719 l 0.1787,-1.29928 h -0.96401 c -1.15021,0 -2.52523,-0.65201 -2.52523,-1.19742 0,-0.49272 0.27409,-0.49156 1.22653,0.005 0.8434,0.43987 1.4193,0.51235 1.4193,0.17864 0,-0.12094 0.2936,-0.37701 0.65244,-0.56905 0.54571,-0.29206 0.72593,-0.28855 1.10165,0.0214 0.41104,0.33912 0.4218,0.31917 0.12666,-0.23469 -0.40101,-0.75253 -0.16665,-1.5642 0.51404,-1.78024 1.20932,-0.38382 2.1614,0.62645 1.59237,1.68969 -0.25701,0.48023 -0.22371,0.49522 0.49643,0.2234 0.64626,-0.24394 0.72873,-0.37206 0.50661,-0.78709 -0.36731,-0.68633 0.37157,-1.78316 1.20121,-1.78316 0.8584,0 1.31508,0.63372 1.1286,1.56611 -0.13624,0.68121 -0.0553,0.81016 0.69466,1.10661 0.46688,0.18455 0.96794,0.38541 1.11346,0.44635 0.14552,0.0609 -0.003,-0.0869 -0.33073,-0.32851 -1.05056,-0.77527 -0.63442,-2.2614 0.63323,-2.2614 0.67269,0 1.44897,0.93249 1.23673,1.48559 -0.0781,0.20352 0.0223,0.3665 0.22567,0.3665 0.20147,0 0.63661,0.18932 0.96697,0.42071 0.46477,0.32554 0.5332,0.50198 0.30249,0.77998 -0.16399,0.19759 0.32245,0.0599 1.08099,-0.30607 1.58415,-0.76422 2.31593,-0.5154 1.1595,0.39425 -0.44993,0.35392 -1.09603,0.56321 -1.73866,0.56321 -0.9321,0 -1.02265,0.0626 -1.02265,0.70727 0,0.389 0.37977,2.29523 0.84393,4.23607 0.624,2.60917 0.76654,3.60619 0.54695,3.82578 -0.61373,0.61373 -1.06595,-0.0333 -1.63616,-2.34099 -0.84649,-3.42584 -1.06886,-3.54464 -1.07358,-0.57355 -0.003,1.93776 -0.099,2.62611 -0.40093,2.87667 -0.87904,0.72954 -1.11334,-0.0734 -1.25556,-4.30256 -0.13265,-3.94429 -0.28618,-4.95786 -0.75102,-4.95786 -0.12659,0 -0.26268,2.11336 -0.30242,4.69636 -0.0692,4.49588 -0.0948,4.69634 -0.60142,4.69634 -0.48407,0 -0.54171,-0.22544 -0.67636,-2.64582 l -0.1472,-2.64583 -0.0512,2.41499 c -0.0393,1.85076 -0.15066,2.49751 -0.47675,2.76813 -0.36152,0.30004 -0.48087,0.27743 -0.79375,-0.15046 -0.27939,-0.3821 -0.36824,-1.55749 -0.36824,-4.87158 0,-2.45244 -0.0997,-4.25774 -0.22726,-4.11662 -0.38746,0.42854 -0.83107,3.93581 -0.83107,6.57056 0,2.55102 -0.21563,3.13393 -0.93763,2.53472 -0.28721,-0.23835 -0.38529,-0.95139 -0.38529,-2.8009 0,-1.36463 -0.0956,-2.48115 -0.21251,-2.48115 -0.11687,0 -0.48115,1.11437 -0.8095,2.47638 -0.69796,2.89519 -1.15383,3.58144 -1.82621,2.74914 z"
       id="path6" /><path
       style="fill:#5a66d7;fill-opacity:1"
       d="m 119.38449,165.29607 c -0.3638,-0.18025 -0.93803,-0.8631 -1.27607,-1.51745 -0.83147,-1.60948 -0.69053,-3.86116 0.36282,-5.7965 0.98197,-1.80422 2.13083,-2.5152 3.76635,-2.33085 1.71262,0.19304 2.49504,1.11153 2.38569,2.80061 l -0.0794,1.2266 -1.26225,0.0809 -1.26225,0.0809 0.16627,-1.03982 c 0.37721,-2.35895 -1.23468,-1.04039 -1.74741,1.42942 -0.3324,1.60117 -0.1143,2.6785 0.63445,3.13393 0.38629,0.23496 0.6198,0.10233 1.36419,-0.77484 l 0.89812,-1.05834 0.57534,0.57357 c 0.57534,0.57356 0.57534,0.5736 0.061,1.45431 -1.03005,1.76368 -3.01588,2.51598 -4.58682,1.73763 z"
       id="path5" /><path
       style="fill:#5a66d7;fill-opacity:1"
       d="m 109.76525,165.42859 c -0.2049,-0.33154 0.35595,-8.60865 0.62717,-9.25584 0.18861,-0.45007 0.4668,-0.59531 1.14019,-0.59531 1.10733,0 1.55217,0.4775 2.34158,2.51354 l 0.61551,1.5875 0.13229,-1.98438 0.1323,-1.98437 0.89354,-0.0854 c 0.49144,-0.047 0.98507,0.0125 1.09694,0.13229 0.11187,0.11974 0.1265,2.36084 0.0325,4.98021 l -0.1709,4.7625 h -1.15046 -1.15045 l -0.88015,-2.33928 c -0.48408,-1.28661 -0.94864,-2.40778 -1.03236,-2.4915 -0.0837,-0.0837 -0.15221,0.99873 -0.15221,2.40544 v 2.55763 h -1.17501 c -0.64625,0 -1.23147,-0.0914 -1.30048,-0.20301 z"
       id="path4" /><path
       style="fill:#5a66d7;fill-opacity:1"
       d="m 104.01515,165.44838 c -0.0129,-0.11751 -0.006,-0.75296 0.0165,-1.41212 0.0271,-0.81071 -0.30773,-2.17337 -1.03482,-4.21164 -1.18577,-3.32409 -1.28319,-3.85458 -0.66424,-3.61706 0.23546,0.0904 0.34166,0.046 0.24897,-0.10399 -0.0889,-0.14385 0.024,-0.27941 0.25084,-0.30124 0.22687,-0.0218 0.54499,-0.0516 0.70694,-0.0661 0.16194,-0.0146 0.62718,0.80698 1.03386,1.82562 l 0.73942,1.85209 0.57907,-1.32292 c 0.31848,-0.72761 0.68585,-1.59636 0.81636,-1.93057 0.20899,-0.53519 0.35583,-0.58622 1.23134,-0.42792 1.06062,0.19177 1.29065,0.298 1.08676,0.50188 -0.0703,0.0703 -0.50913,0.0184 -0.97524,-0.11529 -0.52468,-0.15047 -0.7892,-0.14875 -0.69447,0.005 0.0842,0.13617 0.37708,0.24758 0.65095,0.24758 0.27387,0 0.56748,0.11252 0.65247,0.25004 0.085,0.13753 -0.33994,1.41745 -0.9443,2.84427 -0.72615,1.71434 -1.15466,3.17753 -1.2634,4.31402 l -0.16456,1.71979 -1.12448,0.0814 c -0.61846,0.0447 -1.13506,-0.0148 -1.14799,-0.13229 z m 2.06545,-2.65741 c -0.0608,-0.40218 -0.1122,-0.13593 -0.11418,0.59168 -0.002,0.7276 0.0478,1.05666 0.11057,0.73124 0.0628,-0.32542 0.0644,-0.92074 0.004,-1.32292 z"
       id="path3" /><path
       style="fill:#5a66d7;fill-opacity:1"
       d="m 96.23345,165.2271 c -0.58208,-0.2097 -1.088101,-0.38307 -1.124481,-0.38526 -0.21618,-0.013 -0.009,-1.03914 0.29306,-1.45242 0.342871,-0.46891 0.409851,-0.47099 1.472651,-0.0457 0.61239,0.24503 1.22466,0.37678 1.36059,0.29277 0.61443,-0.37974 0.1677,-1.22184 -1.17401,-2.21302 -1.559521,-1.15209 -1.860861,-1.86437 -1.437461,-3.3978 0.498651,-1.80597 2.445771,-2.80012 4.291311,-2.19104 0.95273,0.31443 1.47772,1.16748 1.47772,2.40113 0,0.7496 -0.0483,0.7813 -1.19063,0.7813 -1.08593,0 -1.19063,-0.0568 -1.19063,-0.64584 0,-0.86066 -0.43222,-1.088 -0.79166,-0.4164 -0.37254,0.6961 -0.12865,1.10121 1.27504,2.11792 1.50579,1.09066 2.01076,2.26097 1.56488,3.62675 -0.5612,1.71901 -2.54887,2.34815 -4.82638,1.52765 z"
       id="path2" /></g></svg>
