<?xml version="1.0" encoding="UTF-8" standalone="no"?>
<!-- Created with Inkscape (http://www.inkscape.org/) -->

<svg
   width="210mm"
   height="297mm"
   viewBox="0 0 210 297"
   version="1.1"
   id="svg1"
   xml:space="preserve"
   xmlns="http://www.w3.org/2000/svg"
   xmlns:svg="http://www.w3.org/2000/svg"><defs
     id="defs1" /><g
     id="layer1"><path
       style="fill:#666666;fill-opacity:0.71372551"
       d="m 84.492568,198.82622 c -5.09687,-1.08167 -9.76833,-4.89068 -11.89464,-9.69865 -1.24189,-2.80813 -1.54482,-5.24921 -1.39857,-11.27025 0.11567,-4.76179 0.21983,-5.78427 0.8248,-8.09595 0.7688,-2.93774 2.45661,-6.65556 4.17042,-9.18639 1.44988,-2.14107 4.92058,-5.6077 7.07493,-7.06663 2.43268,-1.64743 6.23793,-3.37749 9.21947,-4.19165 l 2.58692,-0.70641 h 9.921882 9.92187 l 2.64583,0.71879 c 8.28711,2.25135 14.82062,7.63074 18.44126,15.1837 2.11246,4.40677 2.63282,6.89612 2.78945,13.34454 0.10816,4.45291 0.0506,5.85682 -0.3143,7.67292 -1.3615,6.77511 -6.46861,11.9275 -13.20107,13.31813 -2.89795,0.59859 -37.952992,0.57955 -40.788252,-0.0221 z m -37.66742,-22.32579 c -3.13204,-0.45537 -6.36946,-2.69455 -8.05556,-5.57165 -1.38897,-2.3701 -1.55547,-3.7689 -1.45633,-12.23515 l 0.0904,-7.71767 0.80616,-2.26065 c 0.44339,-1.24335 1.25087,-2.93063 1.79441,-3.7495 1.58734,-2.39144 4.33484,-4.796 6.84512,-5.99072 3.51294,-1.67193 4.14748,-1.75747 13.037,-1.75747 8.90414,0 9.7716,0.12345 13.30265,1.89307 1.7388,0.87141 5.41135,3.84273 5.08589,4.11481 -0.0728,0.0608 -0.94301,0.67974 -1.93388,1.37538 -0.99088,0.69563 -2.93184,2.3453 -4.31324,3.66593 -7.29524,6.97429 -11.29476,15.63692 -12.1534,26.32321 l -0.17539,2.18281 -5.72715,-0.033 c -3.14993,-0.0182 -6.36592,-0.12588 -7.14665,-0.23939 z m 103.296062,-1.91041 c -0.85738,-10.67071 -4.88016,-19.36995 -12.18783,-26.35613 -1.36247,-1.30253 -3.28793,-2.93738 -4.2788,-3.63301 -0.99088,-0.69564 -1.86113,-1.31456 -1.93389,-1.37538 -0.32545,-0.27208 3.34709,-3.2434 5.08589,-4.11481 3.53106,-1.76962 4.39851,-1.89307 13.30265,-1.89307 8.90972,0 9.51442,0.0824 13.09687,1.7836 1.81548,0.86214 2.66031,1.48165 4.38306,3.21407 2.33793,2.35105 3.23662,3.76838 4.29666,6.77629 0.684,1.9409 0.70138,2.15348 0.79308,9.70205 0.0785,6.46089 0.0241,7.98937 -0.33369,9.38618 -0.83781,3.27028 -2.86102,5.79535 -5.81216,7.25388 -2.44868,1.2102 -4.07998,1.4273 -10.77389,1.43382 l -5.46256,0.005 z m -47.8543,-31.95417 c -9.494082,-1.1509 -17.469042,-8.54696 -19.374972,-17.96855 -0.59511,-2.9418 -0.41154,-7.76151 0.40336,-10.59049 2.13787,-7.42181 7.93215,-13.22831 15.48477,-15.517472 2.122342,-0.643269 2.798382,-0.721743 6.217712,-0.721743 3.41932,0 4.09537,0.07847 6.21771,0.721743 7.60714,2.305682 13.339,8.094252 15.5425,15.696302 0.50955,1.75793 0.59495,2.66109 0.58259,6.16094 -0.0133,3.76451 -0.0755,4.28559 -0.75845,6.35 -1.4202,4.29319 -3.13049,6.96561 -6.4659,10.10332 -4.57426,4.30314 -11.4893,6.53694 -17.84932,5.76595 z M 56.446738,131.13754 c -6.38889,-1.40647 -11.3136,-6.0834 -12.98466,-12.33137 -0.59807,-2.23617 -0.59807,-6.18468 0,-8.42085 1.90766,-7.13257 8.0955,-12.186655 15.47132,-12.636609 7.9834,-0.487018 15.51191,5.120929 17.35177,12.925229 0.50826,2.15596 0.50388,5.70475 -0.01,7.89056 -1.08704,4.62598 -4.56734,8.98378 -8.84846,11.07946 -3.63563,1.7797 -7.3719,2.28792 -10.98021,1.49358 z m 90.090622,-0.002 c -6.11768,-1.37713 -11.40547,-6.56328 -12.81722,-12.57106 -0.22227,-0.94589 -0.40413,-2.73183 -0.40413,-3.96875 0,-4.72535 1.52352,-8.40915 4.88111,-11.8023 1.6832,-1.70103 2.58803,-2.37294 4.37149,-3.246168 4.20826,-2.060479 8.43173,-2.382764 12.85303,-0.980791 5.35177,1.697019 9.61822,6.233809 11.11079,11.814819 0.93821,3.50816 0.46422,8.30963 -1.13245,11.47159 -2.21631,4.38906 -5.82754,7.51407 -10.26367,8.88176 -2.41134,0.74344 -6.27602,0.92353 -8.59895,0.4007 z"
       id="path1" /></g></svg>
