<?xml version="1.0" encoding="UTF-8" standalone="no"?>
<!-- Created with Inkscape (http://www.inkscape.org/) -->

<svg
   width="210mm"
   height="297mm"
   viewBox="0 0 210 297"
   version="1.1"
   id="svg1"
   xml:space="preserve"
   xmlns="http://www.w3.org/2000/svg"
   xmlns:svg="http://www.w3.org/2000/svg"><defs
     id="defs1" /><g
     id="layer1"><path
       style="fill:#666666;fill-opacity:0.71372551"
       d="m 17.687998,238.07154 c -0.90382,-0.44739 -1.72788,-1.22755 -2.21827,-2.10008 l -0.78024,-1.38825 0.11711,-29.38506 c 0.12634,-31.70151 0.0224,-29.89013 1.99695,-34.81219 3.02911,-7.55095 10.98238,-14.13553 18.8422,-15.59964 3.33555,-0.62134 3.40706,-0.71481 0.94277,-1.23223 -9.30685,-1.95414 -16.5683,-10.98411 -16.5683,-20.60351 0,-11.39343 9.76099,-21.15441 21.15441,-21.15441 11.40295,0 21.15442,9.75147 21.15442,21.15441 0,9.61102 -7.14365,18.51034 -16.56831,20.64026 -2.22902,0.50374 -2.09605,0.5145 4.7625,0.38518 5.69743,-0.10742 7.57754,-0.27252 9.76727,-0.85771 10.2893,-2.74969 18.49864,-8.88316 23.68531,-17.69607 3.137728,-5.33144 4.677878,-10.53707 5.167158,-17.46471 0.36757,-5.20435 0.55869,-6.00166 2.1578,-9.00192 2.96051,-5.55447 9.920764,-8.90405 16.247704,-7.8191 6.41282,1.09967 11.62395,6.06285 12.95697,12.34047 1.09865,5.17393 -0.31622,16.2524 -3.18539,24.94166 -6.96402,21.09041 -24.286084,37.97961 -45.559012,44.4205 l -3.95169,1.19647 -0.17639,25.52207 c -0.17028,24.63723 -0.20059,25.56208 -0.87424,26.67609 -0.38382,0.63471 -1.34675,1.46815 -2.13985,1.85209 -1.38966,0.67272 -2.24153,0.69805 -23.46743,0.69778 -21.37948,-2.7e-4 -22.0676,-0.0212 -23.46345,-0.7121 z m 127.720982,0.008 c -0.78244,-0.38731 -1.73494,-1.22062 -2.11667,-1.85181 -0.6687,-1.10567 -0.70051,-2.08017 -0.87045,-26.66565 l -0.17639,-25.51804 -4.58611,-1.50977 c -7.58744,-2.49783 -15.46396,-6.81547 -22.13681,-12.13464 -1.50371,-1.19866 -2.73402,-2.24196 -2.73402,-2.31844 0,-0.0765 1.23335,-1.78113 2.74079,-3.78812 4.93511,-6.57055 8.66207,-13.50222 11.17366,-20.78161 0.69859,-2.02474 1.34155,-3.88083 1.42879,-4.12464 0.0923,-0.25804 1.37449,0.82318 3.06804,2.58722 1.60019,1.66679 3.94633,3.81263 5.21366,4.76854 3.26739,2.4645 8.76025,5.10119 12.88756,6.18631 3.10311,0.81584 4.35586,0.94252 10.40694,1.05231 6.70711,0.1217 6.82181,0.1119 4.58611,-0.39169 -9.41912,-2.12168 -16.5683,-11.02717 -16.5683,-20.63856 0,-11.39343 9.76099,-21.15441 21.15441,-21.15441 11.40295,0 21.15442,9.75147 21.15442,21.15441 0,9.6194 -7.26145,18.64937 -16.56831,20.60351 -2.46075,0.51667 -2.38978,0.61174 0.91567,1.22663 4.67427,0.86952 9.09051,3.27106 12.95246,7.04352 3.04637,2.97579 5.17661,6.37808 6.6603,10.63746 l 1.16741,3.35138 0.1017,29.22947 c 0.10114,29.06882 0.0976,29.23788 -0.63857,30.75866 -0.54156,1.11871 -1.14325,1.72427 -2.24155,2.25595 -1.46676,0.71005 -2.00779,0.72675 -23.52671,0.72648 -21.30064,-2.7e-4 -22.07224,-0.0234 -23.44803,-0.70447 z M 81.567688,89.239179 c -0.86102,-0.400896 -3.63233,-2.907673 -7.10904,-6.430446 -4.59296,-4.653828 -5.78389,-6.064173 -6.14125,-7.27273 -1.19205,-4.031376 2.42794,-7.651367 6.45932,-6.45932 1.20855,0.357361 2.6189,1.548289 7.27273,6.141257 7.216218,7.121861 7.927688,8.432778 6.401568,11.795255 -0.52362,1.153684 -1.04343,1.673493 -2.197108,2.197113 -1.88743,0.856641 -2.89506,0.862849 -4.68622,0.02887 z m 42.233232,-0.02887 c -1.15369,-0.52362 -1.6735,-1.043429 -2.19712,-2.197113 -1.52612,-3.362477 -0.81465,-4.673394 6.40158,-11.795255 4.65383,-4.592968 6.06417,-5.783896 7.27273,-6.141257 4.03138,-1.192047 7.65137,2.427944 6.45932,6.45932 -0.35736,1.208557 -1.54829,2.618902 -6.14126,7.27273 -7.12186,7.216228 -8.43278,7.927695 -11.79525,6.401575 z M 102.70744,78.615984 c -0.89499,-0.443024 -1.7276,-1.227053 -2.20486,-2.076226 -0.709311,-1.262057 -0.766831,-1.846751 -0.766831,-7.794727 0,-7.332519 0.313771,-8.425565 2.823641,-9.836191 2.627,-1.476456 5.71237,-0.520255 7.01695,2.174661 0.66773,1.379348 0.74274,2.15306 0.74274,7.66153 0,5.465818 -0.0785,6.289299 -0.72676,7.628526 -0.52765,1.089983 -1.13806,1.700395 -2.22805,2.228047 -1.88101,0.91058 -2.84034,0.913543 -4.65683,0.01438 z"
       id="path1" /></g></svg>
