<?xml version="1.0" encoding="UTF-8" standalone="no"?>
<!-- Created with Inkscape (http://www.inkscape.org/) -->

<svg
   width="210mm"
   height="297mm"
   viewBox="0 0 210 297"
   version="1.1"
   id="svg1"
   xml:space="preserve"
   xmlns="http://www.w3.org/2000/svg"
   xmlns:svg="http://www.w3.org/2000/svg"><defs
     id="defs1" /><g
     id="layer1"><path
       style="fill:#666666;fill-opacity:0.71372551"
       d="m 89.124975,207.88327 v -4.89479 h 15.874995 15.875 v 4.89479 4.89479 h -15.875 -15.874995 z m -9.9339,-7.66089 c -0.35719,-0.35719 -0.64944,-0.89838 -0.64944,-1.20265 0,-0.30427 0.29225,-0.84547 0.64944,-1.20265 0.62314,-0.62315 0.78914,-0.64944 4.10104,-0.64944 h 3.45161 v -1.54087 c 0,-2.04357 -0.6963,-6.03765 -1.49626,-8.58279 -1.7111,-5.44403 -4.08813,-9.30713 -8.91137,-14.48258 -5.36147,-5.75299 -8.48808,-12.16725 -9.60028,-19.69505 -0.52989,-3.58643 -0.36016,-8.72762 0.39797,-12.05495 3.2385,-14.21343 15.12909,-25.538 30.19327,-28.75603 3.241475,-0.69245 12.405835,-0.68333 15.610415,0.0155 14.00169,3.05351 24.91633,12.67622 28.94639,25.52009 2.0414,6.50597 1.98472,14.52319 -0.14902,21.07978 -1.72964,5.31484 -4.29302,9.48424 -9.1094,14.81667 -4.4533,4.93043 -6.71358,8.55166 -8.30773,13.30985 -0.8756,2.61351 -1.58801,6.57933 -1.58959,8.849 l -0.001,1.52135 h 3.71619 c 3.59281,0 3.73776,0.0216 4.36563,0.64944 0.35719,0.35718 0.64943,0.89838 0.64943,1.20265 0,0.30427 -0.29224,0.84546 -0.64943,1.20265 l -0.64943,0.64943 H 104.99994 79.840469 Z M 108.34571,182.3751 c 2.71719,-1.28545 4.87862,-3.60478 6.95439,-7.46244 l 1.0839,-2.01436 1.12101,0.2169 c 1.64036,0.31739 6.03743,0.28562 7.65642,-0.0553 4.30984,-0.90759 7.10336,-3.83209 7.52637,-7.8793 0.14761,-1.41227 0.27364,-1.68967 1.0295,-2.2662 2.10494,-1.60551 2.83219,-5.07516 1.61269,-7.69401 -1.13301,-2.43313 -3.17508,-3.65685 -6.05397,-3.62786 -0.98197,0.01 -1.84703,-0.0817 -1.92236,-0.20361 -0.0753,-0.12188 0.40178,-0.99225 1.06023,-1.93417 2.89884,-4.14683 4.5602,-8.8458 4.28559,-12.12133 -0.47887,-5.71195 -4.91141,-8.70275 -12.35368,-8.33548 -1.67349,0.0826 -3.28083,0.22017 -3.57188,0.30575 -0.44462,0.13074 -0.66998,-0.13494 -1.41057,-1.66285 -2.46735,-5.09043 -6.59289,-8.52526 -10.2396,-8.52526 -0.85903,0 -1.50156,-0.20389 -2.29295,-0.72761 -0.98876,-0.65433 -1.33226,-0.7276 -3.411105,-0.7276 -2.14587,0 -2.39338,0.0574 -3.45152,0.80114 -0.62694,0.44062 -1.49846,1.31133 -1.93672,1.9349 -0.67541,0.96098 -0.81191,1.43212 -0.8957,3.09152 -0.0809,1.60254 0.005,2.17254 0.47419,3.14154 0.53676,1.10879 0.54669,1.23477 0.15681,1.98872 -0.40116,0.77577 -0.46166,0.79795 -1.66912,0.6121 -0.68908,-0.10606 -2.62209,-0.19064 -4.29558,-0.18796 -4.20137,0.007 -6.09504,0.66394 -8.35785,2.90065 -2.11918,2.09473 -2.60049,3.45212 -2.4272,6.8453 0.17446,3.41624 1.33283,6.45969 3.94528,10.36562 0.73799,1.10339 1.2593,2.08874 1.15847,2.18965 -0.10084,0.10092 -0.85809,0.19796 -1.68279,0.21564 -3.68383,0.079 -6.38523,2.81113 -6.39166,6.46433 -0.003,1.75469 0.97423,3.94741 2.14531,4.81322 0.67267,0.49734 0.76252,0.7282 0.76252,1.95929 0,1.95314 0.8659,4.07923 2.23516,5.48809 2.11376,2.1749 4.78059,3.08031 8.99908,3.05526 1.46101,-0.009 3.20838,-0.1068 3.88304,-0.21806 l 1.22665,-0.2023 0.58414,1.20235 c 1.42998,2.94333 3.57614,5.70629 5.67727,7.3089 2.467055,1.88172 6.002275,2.26189 8.786235,0.94484 z m -5.33012,-3.23838 c -1.59961,-0.86985 -2.68188,-1.82283 -3.696285,-3.25475 -1.60347,-2.26342 -2.36394,-3.8281 -1.93414,-3.97955 3.163775,-1.1148 4.447255,-1.60361 5.818915,-2.2161 l 1.64155,-0.73301 2.25998,1.00141 c 1.24299,0.55078 2.94459,1.20654 3.78134,1.45725 0.83674,0.2507 1.52135,0.57067 1.52135,0.71105 0,0.55863 -1.90525,3.61528 -3.04047,4.87792 -0.6625,0.73685 -1.71576,1.58721 -2.34057,1.88968 -1.22931,0.5951 -3.15287,0.7131 -4.01167,0.2461 z m -18.554675,-9.95576 c -0.74622,-0.26682 -1.66742,-0.68868 -2.04712,-0.93747 -0.81283,-0.53259 -1.75549,-2.25745 -1.75549,-3.21218 0,-0.55271 0.12607,-0.672 0.71022,-0.672 1.0754,0 2.84978,-0.96691 3.8926,-2.12118 1.15936,-1.28328 1.86541,-3.51798 1.61086,-5.09846 l -0.17955,-1.11473 1.57328,1.53977 1.57328,1.53977 0.33964,2.28287 c 0.1868,1.25557 0.66931,3.53924 1.07224,5.07481 0.40294,1.53557 0.68241,2.8439 0.62105,2.90741 -0.0614,0.0635 -1.44867,0.1562 -3.0829,0.206 -2.3795,0.0725 -3.24159,-0.006 -4.32811,-0.39461 z m 33.834365,0.28329 c -0.32742,-0.0631 -0.59531,-0.1741 -0.59531,-0.24675 0,-0.0726 0.2926,-1.28641 0.65023,-2.69726 0.35764,-1.41085 0.83158,-3.68635 1.05322,-5.05668 0.22163,-1.37032 0.49457,-2.56731 0.60653,-2.65997 0.11196,-0.0927 0.93101,-0.84725 1.8201,-1.67688 l 1.61654,-1.50841 -0.25594,1.29446 c -0.52281,2.64414 1.05692,5.66818 3.60551,6.90193 0.61878,0.29954 1.39457,0.54462 1.72399,0.54462 0.53733,0 0.5799,0.0885 0.41377,0.8599 -0.66573,3.09137 -3.05383,4.46467 -7.64395,4.39574 -1.31966,-0.0198 -2.66727,-0.0876 -2.99469,-0.1507 z m -6.74688,-1.75868 c -1.2733,-0.45173 -2.3151,-0.90187 -2.3151,-1.00031 0,-0.0985 0.56555,-0.50528 1.25677,-0.90407 0.69122,-0.39878 2.01494,-1.24935 2.94159,-1.89015 0.92665,-0.64079 1.74715,-1.10275 1.82333,-1.02656 0.14821,0.14821 -0.58216,3.36351 -1.08686,4.78464 l -0.30462,0.85777 z m -16.538776,-1.42803 c -0.301609,-1.12778 -0.631879,-2.45784 -0.73394,-2.95568 l -0.185559,-0.90516 1.293679,0.94965 c 0.71153,0.52231 2.16358,1.48597 3.226781,2.14148 1.646905,1.01539 1.861465,1.2288 1.449255,1.44148 -0.730776,0.37707 -3.744036,1.37875 -4.147536,1.37875 -0.21838,0 -0.5647,-0.7867 -0.90268,-2.05052 z m 8.402846,-2.24779 c -3.39519,-2.01761 -5.202096,-3.20386 -7.435055,-4.88115 l -2.54026,-1.90812 -0.169841,-1.79839 c -0.209099,-2.21418 -0.181159,-7.14078 0.051,-8.99526 0.1622,-1.29554 0.265141,-1.44866 1.759771,-2.61763 2.08924,-1.634 6.502815,-4.54596 8.349655,-5.50887 l 1.47049,-0.76668 1.96909,1.14112 c 2.4496,1.41959 6.91076,4.45244 8.31909,5.6556 l 1.05834,0.90416 0.0828,5.25291 c 0.0456,2.8891 0.0132,5.6101 -0.0719,6.04667 -0.12114,0.62155 -0.69761,1.19554 -2.65725,2.64583 -3.03889,2.24902 -8.24302,5.43217 -8.83177,5.40204 -0.23551,-0.0121 -0.84493,-0.26956 -1.35425,-0.57223 z m 3.96875,-6.99342 c 1.15838,-0.47128 2.54583,-1.78392 3.16647,-2.99577 1.62714,-3.17705 0.2365,-7.14793 -3.06257,-8.74499 -0.95481,-0.46221 -1.53665,-0.55398 -2.99132,-0.47178 -2.31497,0.1308 -4.01787,1.11309 -5.175375,2.98531 -0.70878,1.14643 -0.80074,1.52784 -0.80074,3.32105 0,1.7928 0.092,2.17474 0.80001,3.31986 1.767165,2.85833 4.914035,3.86767 8.063525,2.58632 z m -4.51827,-4.03375 c -0.88171,-0.8817 -1.00906,-1.97217 -0.37379,-3.20064 0.49448,-0.95621 1.14097,-1.31763 2.35695,-1.31763 2.31083,0 3.48819,2.94351 1.83757,4.59413 -1.02176,1.02176 -2.75758,0.9873 -3.82073,-0.0759 z m -23.858296,7.36679 c -0.6486,-0.37778 -1.25677,-1.65136 -1.25677,-2.63185 0,-2.10166 3.05437,-3.21627 4.59413,-1.6765 1.67394,1.67394 0.46825,4.60526 -1.88632,4.58608 -0.54341,-0.004 -1.196379,-0.1294 -1.45104,-0.27773 z m 48.803896,-0.3705 c -1.97224,-1.65952 -0.85799,-4.63539 1.73562,-4.63539 2.17818,0 3.33416,1.9902 2.30827,3.97405 -0.7674,1.484 -2.69213,1.79877 -4.04389,0.66134 z m -39.591236,-7.71751 -1.039959,-1.18019 1.1061,-1.1061 1.1061,-1.1061 v 2.31121 c 0,1.27117 -0.0298,2.3 -0.0661,2.2863 -0.0364,-0.0137 -0.534129,-0.55601 -1.1061,-1.20512 z m 31.863906,-0.96522 c 0,-1.26646 0.11039,-2.30266 0.24532,-2.30266 0.3123,0 1.87135,1.87913 1.87135,2.25555 0,0.15559 -0.47625,0.74794 -1.05834,1.31633 l -1.05833,1.03343 z m -36.611856,-5.18561 c -1.87108,-3.09511 -2.61133,-5.10732 -2.75476,-7.48819 -0.110959,-1.84188 -0.0563,-2.15014 0.57161,-3.22152 0.53011,-0.90457 1.05417,-1.36145 2.21601,-1.93198 1.42655,-0.70051 1.73128,-0.74723 4.87317,-0.74723 1.8433,0 3.40627,0.0595 3.47325,0.13229 0.067,0.0728 -0.21215,1.44198 -0.62028,3.04271 -0.40814,1.60073 -0.8984,3.92244 -1.08947,5.15937 l -0.347389,2.24896 -2.52973,2.44716 -2.52972,2.44716 z m 38.787346,-0.44983 -2.45473,-2.41969 -0.39835,-2.48158 c -0.21909,-1.36486 -0.70497,-3.64936 -1.07971,-5.07666 -0.37475,-1.42729 -0.59901,-2.67745 -0.49837,-2.77812 0.10064,-0.10067 1.6316,-0.18218 3.40214,-0.18112 2.81853,0.002 3.39279,0.0802 4.61432,0.63052 2.54214,1.14537 3.52474,3.08241 3.03929,5.99146 -0.42083,2.52178 -2.14194,6.31183 -3.72553,8.20397 -0.43468,0.51937 -0.49772,0.4783 -2.89906,-1.88878 z m -28.102245,-6.11292 c 0.005,-0.39405 1.344539,-5.48319 1.47928,-5.61793 0.16039,-0.16039 4.599995,1.3498 4.768195,1.62196 0.0646,0.10448 -0.27343,0.39116 -0.751125,0.63705 -0.47771,0.2459 -1.75739,1.05464 -2.84375,1.79721 -2.5908,1.7709 -2.65542,1.80894 -2.6526,1.56171 z m 20.238205,-0.4834 c -0.43656,-0.3372 -1.83569,-1.26588 -3.10918,-2.06373 l -2.31543,-1.45064 2.26312,-0.81889 c 1.24471,-0.45039 2.37263,-0.81889 2.50647,-0.81889 0.34078,0 1.73635,4.988 1.5423,5.51245 -0.0514,0.13903 -0.45071,-0.0231 -0.88728,-0.3603 z m -11.37708,-6.49717 c -0.87312,-0.42641 -2.56976,-1.09666 -3.770305,-1.48946 -1.20055,-0.39279 -2.18281,-0.77893 -2.18281,-0.85807 0,-0.0791 1.0613,-0.14391 2.35846,-0.14391 2.197975,0 2.436005,-0.0545 3.498335,-0.80113 1.77949,-1.25068 2.68673,-2.73582 2.82312,-4.62145 0.0711,-0.98278 0.23443,-1.58887 0.4282,-1.58887 0.76755,0 2.88908,1.70949 4.0096,3.23086 1.90104,2.5811 2.62517,4.17591 1.89738,4.17877 -0.1819,7.1e-4 -1.93807,0.65497 -3.9026,1.45391 -1.96453,0.79893 -3.57188,1.44407 -3.57188,1.43362 0,-0.0104 -0.71437,-0.36786 -1.5875,-0.79427 z m -5.444305,-6.83671 c -0.60656,-0.60655 -0.7734,-1.01048 -0.7734,-1.87243 0,-0.86195 0.16684,-1.26588 0.7734,-1.87244 1.70432,-1.70432 4.518265,-0.53818 4.518265,1.87244 0,0.86195 -0.16684,1.26588 -0.7734,1.87243 -0.60655,0.60656 -1.01048,0.7734 -1.872425,0.7734 -0.86195,0 -1.26588,-0.16684 -1.87244,-0.7734 z m 46.322435,-7.95785 c -0.69641,-0.69641 -0.6706,-1.66544 0.0662,-2.48394 0.32742,-0.36375 2.73226,-2.51352 5.34408,-4.77726 3.96146,-3.4335 4.88681,-4.11588 5.58139,-4.11588 1.02335,0 1.70839,0.7024 1.70839,1.75168 0,0.92489 -0.42033,1.35311 -6.4237,6.54449 -4.47554,3.8702 -5.15398,4.20323 -6.2763,3.08091 z m -82.097445,-2.56357 c -6.60105,-6.12379 -8.39005,-8.00202 -8.39005,-8.80853 0,-0.97497 0.82006,-1.85707 1.72646,-1.85707 0.717419,0 1.67142,0.81785 7.6001,6.5154 2.845739,2.73479 3.37344,3.3656 3.37344,4.0326 0,0.87232 -1.02092,1.88742 -1.89824,1.88742 -0.27718,0 -1.362451,-0.79642 -2.41171,-1.76982 z M 102.66484,97.865698 c -0.55505,-0.59082 -0.57529,-0.81932 -0.57529,-6.49432 v -5.881949 l 0.64943,-0.649431 c 0.82408,-0.824075 1.58123,-0.824075 2.4053,0 l 0.64944,0.649431 v 5.919029 c 0,5.845 -0.008,5.92623 -0.61237,6.49432 -0.79444,0.74634 -1.79437,0.73161 -2.51651,-0.0371 z"
       id="path1" /></g></svg>
