<?xml version="1.0" encoding="UTF-8" standalone="no"?>
<!-- Created with Inkscape (http://www.inkscape.org/) -->

<svg
   width="210mm"
   height="297mm"
   viewBox="0 0 210 297"
   version="1.1"
   id="svg1"
   xml:space="preserve"
   xmlns="http://www.w3.org/2000/svg"
   xmlns:svg="http://www.w3.org/2000/svg"><defs
     id="defs1" /><g
     id="layer1"><path
       style="fill:#666666;fill-opacity:0.71372551"
       d="m 63.262834,192.17034 c -1.16694,-0.53725 -4.65182,-4.3279 -7.31719,-7.95921 -5.706339,-7.77434 -9.380119,-16.62698 -10.99445,-26.49308 -0.63398,-3.87466 -0.63398,-14.59386 0,-18.46852 1.74364,-10.6564 5.950851,-20.22014 12.54577,-28.51876 4.32375,-5.44073 6.288611,-6.8748 8.50817,-6.2098 2.05735,0.61639 3.21189,2.12733 3.20984,4.20068 -0.001,1.25372 -0.49692,2.06137 -2.85247,4.64772 -7.180819,7.88441 -11.672809,17.43528 -13.136769,27.93147 -0.534031,3.82884 -0.534031,10.53706 0,14.3659 1.470759,10.54495 5.92533,19.9823 13.23778,28.04532 2.52624,2.78553 2.846459,3.3877 2.686549,5.05192 -0.15416,1.60445 -0.807969,2.53691 -2.320758,3.30991 -1.405552,0.7182 -2.171002,0.7389 -3.56647,0.0965 z m 79.777276,-0.0965 c -1.51279,-0.773 -2.16659,-1.70546 -2.32076,-3.30991 -0.15991,-1.66422 0.16032,-2.26639 2.68655,-5.05192 7.55562,-8.33114 11.99954,-18.01202 13.37458,-29.13591 0.35615,-2.88114 0.35615,-9.30358 0,-12.18472 -1.36687,-11.0578 -5.86026,-20.88239 -13.27356,-29.02206 -2.35555,-2.58635 -2.85123,-3.394 -2.85247,-4.64772 -0.002,-2.07335 1.15249,-3.58429 3.20983,-4.20068 2.22133,-0.66553 4.01491,0.62384 8.3395,5.99511 8.73975,10.85504 13.32051,23.91168 13.32051,37.96771 0,15.40516 -5.29882,29.09566 -15.83617,40.91571 -2.93388,3.29102 -4.33676,3.85538 -6.64801,2.67439 z m -64.179328,-16.0379 c -1.938341,-1.18202 -6.028166,-6.58308 -8.089756,-10.68338 -1.28126,-2.54831 -2.446511,-5.97268 -3.19594,-9.39209 -0.75882,-3.46224 -0.82135,-10.92674 -0.12102,-14.44745 1.37543,-6.91464 4.66052,-13.53492 9.181526,-18.5031 1.92983,-2.12071 2.70405,-2.57235 4.40734,-2.57102 2.3794,0.002 4.04519,1.6694 4.04704,4.0513 10e-4,1.57438 -0.18504,1.92648 -2.30482,4.35706 -3.30613,3.79086 -5.31633,7.56928 -6.62256,12.44787 -0.61339,2.29094 -0.685,3.04246 -0.685,7.18861 0,4.14615 0.0716,4.89767 0.685,7.18861 1.30384,4.86966 3.63613,9.20542 6.8786,12.78743 1.82444,2.01548 2.04999,2.45777 2.04878,4.0175 -0.002,2.4067 -1.66566,4.05031 -4.10005,4.05031 -0.82363,0 -1.6272,-0.18556 -2.12914,-0.49165 z m 47.833488,-0.0341 c -1.23383,-0.75228 -1.91364,-2.00358 -1.91482,-3.52455 -10e-4,-1.58885 0.14622,-1.86017 2.48914,-4.58012 3.25513,-3.77898 5.33022,-7.79809 6.56166,-12.7089 0.49515,-1.97457 0.58425,-3.03953 0.57203,-6.83681 -0.0128,-3.97029 -0.0946,-4.79803 -0.69747,-7.05632 -1.30065,-4.87209 -3.31259,-8.65491 -6.62055,-12.44787 -2.11978,-2.43058 -2.30603,-2.78268 -2.30481,-4.35706 0.002,-2.4067 1.66566,-4.05031 4.10005,-4.05031 1.65452,0 2.54412,0.52453 4.32291,2.54892 3.16444,3.60135 5.2479,6.91061 6.93834,11.02052 4.43056,10.77185 3.6377,23.27572 -2.11325,33.32708 -1.92766,3.36913 -5.45626,7.74669 -7.00612,8.69179 -1.10972,0.67669 -3.19483,0.66399 -4.32711,-0.0264 z M 97.692402,165.04487 c -1.43785,-0.53527 -2.80887,-1.71069 -3.7379,-3.20463 l -0.79375,-1.27641 v -12.05929 c 0,-11.90383 0.007,-12.07326 0.57973,-13.14268 0.634979,-1.18666 2.00404,-2.50215 3.3032,-3.17398 1.08396,-0.56053 3.519998,-0.77343 4.801328,-0.4196 1.737,0.47965 19.19549,10.62905 20.44372,11.88485 1.26395,1.27162 1.96056,2.99073 1.96056,4.83831 0,1.53067 -0.38818,2.70423 -1.37429,4.15474 -0.83242,1.22446 -1.14282,1.42021 -13.50374,8.51611 -6.94947,3.98941 -7.10405,4.062 -8.86354,4.16211 -1.146168,0.0652 -2.159508,-0.0354 -2.815318,-0.27953 z"
       id="path1" /></g></svg>
