<?xml version="1.0" encoding="UTF-8" standalone="no"?>
<!-- Created with Inkscape (http://www.inkscape.org/) -->

<svg
   width="210mm"
   height="297mm"
   viewBox="0 0 210 297"
   version="1.1"
   id="svg1"
   xml:space="preserve"
   xmlns="http://www.w3.org/2000/svg"
   xmlns:svg="http://www.w3.org/2000/svg"><defs
     id="defs1" /><g
     id="layer1"><path
       style="fill:#666666;fill-opacity:0.71372551"
       d="m 112.30174,215.99494 c -8.42112,-1.32837 -15.425876,-6.08022 -19.682106,-13.35186 -0.59624,-1.01865 -1.34941,-2.56646 -1.67371,-3.43958 -0.32431,-0.87313 -0.5986,-1.60789 -0.60955,-1.63281 -0.0109,-0.0249 -2.341056,0.4595 -5.178046,1.07651 l -5.15817,1.12182 -0.17805,1.70161 c -0.0979,0.93589 -0.35574,2.19403 -0.57291,2.79586 -1.78738,4.95331 -7.24658,8.16927 -12.37483,7.28987 -3.71702,-0.6374 -6.82613,-2.95369 -8.48345,-6.32019 -0.84298,-1.71233 -0.88034,-1.91758 -0.88034,-4.83649 0,-2.89706 0.0423,-3.13472 0.85286,-4.79114 3.40457,-6.95747 12.35819,-8.6651 17.90881,-3.41556 0.78653,0.74387 1.76849,2.00019 2.18211,2.79181 0.42788,0.81889 0.93263,1.43959 1.17098,1.43995 0.37557,5.7e-4 8.26112,-1.69886 9.238366,-1.99098 0.33394,-0.0998 0.3986,-0.90575 0.40774,-5.08278 0.0102,-4.65264 0.0567,-5.11358 0.74157,-7.3454 1.02761,-3.34887 2.55075,-6.36928 4.54591,-9.01462 0.94221,-1.24925 1.71311,-2.32815 1.71311,-2.39754 0,-0.14414 -6.6272,-8.33103 -7.609966,-9.40094 l -0.64736,-0.70477 -1.17877,0.89977 c -9.39134,7.16857 -23.03295,7.16381 -32.35754,-0.0113 -10.3233,-7.94359 -13.63585,-21.46342 -8.10533,-33.08102 2.09052,-4.39142 5.5967,-8.39639 9.60276,-10.96883 l 1.83643,-1.17924 -3.06026,-6.31555 -3.06027,-6.31554 -1.76065,0.17681 c -2.28993,0.22997 -4.38255,-0.20784 -6.65123,-1.39154 -3.11851,-1.62711 -5.15974,-4.535935 -5.799,-8.263762 -0.82246,-4.796245 1.88546,-9.790306 6.47504,-11.941514 1.81182,-0.849228 2.06732,-0.896667 4.82936,-0.896667 2.74435,0 3.01742,0.04977 4.63021,0.843966 2.15576,1.061569 3.65969,2.341468 4.75264,4.044681 3.0696,4.783556 2.24431,10.915593 -1.98991,14.785426 l -1.48365,1.35598 3.05894,6.25144 c 2.53642,5.18357 3.1385,6.22594 3.52469,6.10217 5.80886,-1.86164 11.32951,-2.0948 16.45831,-0.6951 2.62494,0.71637 6.88564,2.7754 8.89587,4.29904 2.344256,1.77679 5.367276,5.05113 6.829676,7.39746 0.7025,1.12712 1.33791,2.04931 1.41202,2.04931 0.23151,0 24.539576,-10.62913 24.720286,-10.80939 0.0942,-0.0939 -0.12698,-1.30191 -0.4915,-2.68436 -0.839,-3.18191 -0.95595,-8.81062 -0.24407,-11.7467 0.24334,-1.00365 0.41033,-1.85428 0.37108,-1.89027 -0.15942,-0.14623 -7.17112,-3.0301 -7.21462,-2.967333 -0.0259,0.03732 -0.43187,0.637235 -0.90223,1.333155 -1.09491,1.619948 -3.05077,3.162628 -4.98468,3.931658 -2.14826,0.85427 -6.167476,0.86453 -8.268776,0.0211 -3.95072,-1.58574 -6.70891,-5.333486 -7.06677,-9.602117 -0.59701,-7.121121 5.91373,-13.138408 12.916516,-11.937563 5.60053,0.960385 9.48634,5.549207 9.5011,11.220038 l 0.005,1.926575 3.38229,1.389063 c 1.86026,0.763984 3.50007,1.389062 3.64403,1.389062 0.14396,0 0.59727,-0.684101 1.00734,-1.520224 2.8591,-5.829587 8.41581,-10.831314 14.57819,-13.12217 8.74434,-3.250697 18.26504,-1.84893 25.75018,3.791292 4.75604,3.583787 8.41941,9.101922 9.84621,14.831374 0.71807,2.88348 0.96423,7.78218 0.52791,10.50557 -2.47613,15.45519 -17.14168,25.68171 -32.2217,22.46866 -0.9095,-0.19378 -1.65365,-0.33096 -1.65365,-0.30483 0,0.0261 -2.44277,6.98896 -5.42838,15.47296 -2.98561,8.48401 -5.39663,15.44935 -5.35781,15.47854 0.0388,0.0292 0.78495,0.42979 1.65807,0.8902 2.99186,1.57765 6.17632,4.29593 8.37475,7.14873 l 0.68993,0.8953 6.44787,-4.3757 c 3.63249,-2.46511 6.42271,-4.53117 6.39026,-4.73176 -0.0317,-0.19584 -0.25936,-1.1895 -0.50593,-2.20815 -0.83076,-3.43204 0.217,-7.26114 2.71874,-9.9357 6.47961,-6.92722 17.90852,-3.43314 19.46343,5.95042 0.78504,4.73758 -1.82735,9.62121 -6.33391,11.84067 -1.68715,0.83091 -1.92812,0.87586 -4.69512,0.87586 -3.46376,0 -4.6815,-0.38053 -7.11717,-2.22409 l -1.62679,-1.23131 -6.29996,4.28262 c -3.46498,2.35544 -6.36075,4.34341 -6.43506,4.41771 -0.0743,0.0743 0.28304,1.18678 0.79409,2.47217 1.69546,4.2644 1.88,5.29129 1.87018,10.40686 -0.007,3.89359 -0.0985,4.95329 -0.57237,6.661 -1.36672,4.92559 -3.577,8.76587 -7.06808,12.2805 -4.94101,4.97435 -11.1126,7.6673 -18.1334,7.91245 -1.67349,0.0584 -3.74699,-0.005 -4.60779,-0.14063 z m -12.20639,-12.42582 c 0.97306,-3.06863 3.53622,-5.9329 6.6309,-7.40985 l 1.69561,-0.80924 -1.05399,-1.38056 c -2.31058,-3.02646 -2.76332,-7.58286 -1.09871,-11.05734 1.01617,-2.12102 3.13324,-4.21343 5.28186,-5.22035 1.36393,-0.63918 1.82441,-0.71328 4.43247,-0.71328 2.60806,0 3.06854,0.0741 4.43247,0.71328 2.14679,1.00606 4.26523,3.09917 5.28355,5.22035 1.68402,3.50789 1.23967,7.96203 -1.10243,11.05062 l -1.04179,1.37383 1.92833,0.9528 c 3.3455,1.65305 5.51006,4.22337 6.62127,7.86248 l 0.56982,1.86611 1.26082,-1.40233 c 3.46955,-3.85898 5.72816,-9.90518 5.72816,-15.33402 0,-3.96609 -1.28548,-8.60247 -3.3684,-12.14893 -2.28036,-3.88262 -7.37367,-8.21134 -11.5865,-9.84719 -4.44791,-1.72712 -9.908,-2.07353 -14.46454,-0.91767 -6.93111,1.75822 -12.891706,6.7464 -15.845206,13.2602 -1.4078,3.10484 -1.92783,5.70886 -1.92783,9.65359 0,2.86422 0.11764,4.0126 0.59378,5.79642 1.00044,3.74806 2.82499,7.1598 5.28533,9.88311 1.05388,1.16652 0.89303,1.29483 1.745026,-1.39203 z m 0.51534,-36.39067 c 2.36327,-1.65205 5.7769,-3.20295 8.83605,-4.01445 2.18605,-0.5799 3.1386,-0.68227 6.40446,-0.6883 2.6246,-0.005 4.43304,0.12939 5.7251,0.42497 1.03875,0.23763 2.03787,0.46626 2.22026,0.50807 0.21854,0.0501 2.16721,-5.11193 5.71446,-15.13753 2.96056,-8.36745 5.38448,-15.29682 5.3865,-15.3986 0.002,-0.10177 -0.91906,-0.66741 -2.04685,-1.25697 -2.67892,-1.40044 -5.15477,-3.28233 -7.21301,-5.48259 -1.58996,-1.69968 -4.23021,-5.426 -4.23021,-5.97032 0,-0.43791 -0.8078,-0.11232 -13.22917,5.33222 -8.08626,3.54437 -12.008626,5.39139 -11.947436,5.62597 0.0501,0.19208 0.33773,1.2422 0.63918,2.33361 0.44681,1.61774 0.55159,2.791 0.5671,6.35001 0.0174,3.98273 -0.0446,4.59439 -0.70665,6.97386 -0.93744,3.36939 -2.54714,6.64422 -4.57232,9.30208 l -1.6159,2.12074 4.12166,5.08354 c 2.26691,2.79596 4.14572,5.08608 4.17513,5.08917 0.0294,0.003 0.82665,-0.53488 1.771646,-1.19548 z M 90.652634,152.5466 c 2.53468,-3.96234 3.60948,-7.82085 3.58622,-12.87435 -0.0186,-4.04833 -0.54937,-6.42244 -2.21423,-9.90489 -4.001046,-8.36913 -12.166866,-13.51074 -21.457556,-13.51074 -5.9618,0 -11.58291,2.26432 -16.02246,6.45424 -5.15155,4.8619 -7.7283,11.18746 -7.39431,18.15201 0.18112,3.77689 0.67271,5.7476 2.27701,9.12813 1.14518,2.41308 3.96694,6.48229 4.4951,6.48229 0.11993,0 0.35889,-0.55929 0.53102,-1.24287 0.90556,-3.5963 3.3099,-6.58909 6.62757,-8.24964 l 2.06567,-1.0339 -0.77639,-0.94188 c -0.427,-0.51804 -1.09981,-1.63217 -1.49512,-2.47586 -0.6457,-1.37808 -0.71874,-1.83038 -0.71874,-4.45067 0,-2.76049 0.0464,-3.01089 0.86627,-4.67564 3.23875,-6.57617 12.0933,-8.0483 17.27028,-2.87131 3.74634,3.74634 4.19801,9.85315 1.03521,13.99679 -0.59465,0.77906 -1.0439,1.44074 -0.99835,1.47041 0.0456,0.0297 0.91627,0.45545 1.93492,0.94618 3.29121,1.58553 5.60621,4.42652 6.64161,8.15066 l 0.43966,1.58137 1.18766,-1.33724 c 0.653216,-0.73549 1.606746,-1.99238 2.118956,-2.79309 z m 39.852276,-32.95425 c 1.09262,-1.86442 3.14487,-3.70645 5.33521,-4.78871 l 1.98164,-0.97915 -0.83822,-0.95468 c -0.46102,-0.52507 -1.14791,-1.61495 -1.52643,-2.42195 -0.61059,-1.3018 -0.68821,-1.79554 -0.68821,-4.3777 0,-2.60806 0.0741,-3.06854 0.71329,-4.43247 0.99455,-2.12223 3.08922,-4.250943 5.21061,-5.295299 1.64023,-0.807484 1.90176,-0.855565 4.65387,-0.855565 2.65694,0 3.04977,0.0657 4.42205,0.739586 2.33466,1.146485 4.02041,2.82731 5.17046,5.155338 0.95344,1.93004 0.99624,2.13158 0.99288,4.67561 -0.003,2.33436 -0.0913,2.84696 -0.72337,4.20271 -0.39593,0.84924 -1.09331,2.01559 -1.54974,2.59189 -0.45644,0.57629 -0.78576,1.07323 -0.73184,1.10431 0.0539,0.0311 0.91415,0.44733 1.91162,0.925 3.28738,1.57428 5.58112,4.35867 6.6549,8.07845 l 0.44562,1.54372 0.66483,-0.61768 c 2.04814,-1.90292 4.69746,-6.77296 5.6616,-10.40727 0.73098,-2.75544 0.80296,-8.11063 0.14528,-10.80914 -1.02265,-4.196061 -2.98398,-7.872474 -5.83558,-10.938503 -2.22371,-2.390912 -4.41244,-3.98629 -7.37085,-5.372647 -6.33543,-2.968884 -14.10992,-2.866578 -20.37279,0.26809 -6.04779,3.027013 -10.24019,8.058586 -12.27762,14.73519 -0.63995,2.09708 -0.71025,2.73332 -0.71025,6.42847 0,3.69515 0.0703,4.33139 0.71025,6.42847 1.11876,3.66616 2.78066,6.67263 5.05315,9.14149 l 1.05869,1.15018 0.56735,-1.85801 c 0.31204,-1.0219 0.88426,-2.39878 1.2716,-3.05973 z"
       id="path1" /></g></svg>
