<?xml version="1.0" encoding="UTF-8" standalone="no"?>
<!-- Created with Inkscape (http://www.inkscape.org/) -->

<svg
   width="210mm"
   height="297mm"
   viewBox="0 0 210 297"
   version="1.1"
   id="svg1"
   xml:space="preserve"
   xmlns="http://www.w3.org/2000/svg"
   xmlns:svg="http://www.w3.org/2000/svg"><defs
     id="defs1" /><g
     id="layer1"><path
       style="fill:#666666;fill-opacity:0.71372551"
       d="m 130.05493,206.2227 c -6.15929,-0.8623 -11.48805,-3.43571 -15.96765,-7.71123 -8.29933,-7.92122 -11.1648,-19.66287 -7.44089,-30.48998 0.29601,-0.86066 0.40847,-1.48915 0.27513,-1.53765 -0.12404,-0.0451 -4.25417,-2.56696 -9.178073,-5.60411 l -8.95254,-5.5221 -1.36621,1.23854 c -5.13533,4.65548 -12.18625,6.99454 -18.77561,6.22858 -3.26958,-0.38006 -5.30168,-0.97779 -8.21738,-2.4171 -13.127603,-6.48036 -17.452063,-22.84054 -9.291533,-35.15146 3.022233,-4.55931 8.320163,-8.3099 13.843443,-9.80026 2.02636,-0.54678 2.63743,-0.60757 6.10702,-0.60757 3.44764,0 4.0876,0.0628 6.05142,0.59347 4.5145,1.22 8.60257,3.72439 11.81335,7.23695 l 1.67529,1.83275 12.114793,-5.59007 12.11479,-5.59008 0.003,-3.45035 c 0.003,-4.01726 0.27067,-5.26321 1.82154,-8.47819 6.14245,-12.733353 23.44244,-14.73562 32.33133,-3.741965 1.46886,1.816669 3.13938,5.044425 3.71718,7.182315 0.49828,1.84363 0.68481,5.9539 0.36362,8.01244 -1.32851,8.51458 -8.47772,15.25573 -17.08845,16.11307 -5.80834,0.57832 -11.2413,-1.34989 -15.46088,-5.48722 l -1.49563,-1.46647 -11.28045,5.21675 c -6.20425,2.86921 -11.700783,5.40004 -12.214513,5.62407 l -0.93406,0.40732 0.33379,1.8918 c 0.48231,2.73354 0.26755,6.91091 -0.4986,9.69846 -0.34797,1.26605 -0.50418,2.22017 -0.38329,2.34107 0.11224,0.11223 4.22265,2.68043 9.134253,5.7071 l 8.93018,5.50304 1.85777,-1.75082 c 2.29589,-2.16372 4.32995,-3.61047 7.00077,-4.97941 7.10147,-3.63987 15.7365,-4.1029 23.31533,-1.25024 7.30805,2.75075 13.56552,8.83988 16.52708,16.08246 3.86132,9.443 2.48183,20.1841 -3.64851,28.40821 -2.4601,3.30034 -6.55097,6.74023 -10.16978,8.55148 -5.13901,2.57213 -11.22291,3.56052 -16.96659,2.7564 z"
       id="path1" /></g></svg>
